<svg width="156" height="146" viewBox="0 0 156 146" fill="none" xmlns="http://www.w3.org/2000/svg">
<path d="M77.8667 0L90.7246 24.0937L114.053 8.36171L113.495 35.2975L141.95 31.5313L128.103 55.1385L155.166 64.2008L131.203 79.0714L150.673 98.8862L122.084 101.613L129.502 127.641L102.835 117.6L96.5014 143.879L77.8667 123.37L59.232 143.879L52.898 117.6L26.2315 127.641L33.6494 101.613L5.06007 98.8862L24.5304 79.0714L0.567734 64.2008L27.6301 55.1385L13.7837 31.5313L42.2384 35.2975L41.6802 8.36171L65.0087 24.0937L77.8667 0Z" fill="#EDF53A"/>
<path d="M77.8668 15.2905L88.0316 34.3375L106.474 21.9008L106.032 43.1946L128.527 40.2173L117.581 58.8798L138.975 66.0439L120.031 77.7997L135.423 93.4641L112.822 95.6201L118.687 116.196L97.6056 108.258L92.5983 129.033L77.8668 112.82L63.1353 129.033L58.1281 108.258L37.0471 116.196L42.9113 95.6201L20.3102 93.4641L35.7023 77.7997L16.7589 66.0439L38.1528 58.8798L27.2066 40.2173L49.7012 43.1946L49.26 21.9008L67.7021 34.3375L77.8668 15.2905Z" stroke="#1E1E1E" stroke-width="4.53331"/>
<path d="M54.8104 52.3048C55.5272 57.1569 55.9131 62.0641 55.9131 67.1367C55.9131 69.4525 55.858 76.6203 54.5898 90.0187H64.1286C63.9632 89.3571 63.7978 88.3646 63.6324 86.9862C63.3567 84.2844 63.2464 81.7481 63.2464 80.3145C63.2464 78.4399 63.3015 75.6279 63.9081 72.7607C64.5146 69.9487 65.5622 67.9638 67.3266 67.9638C69.8077 67.9638 70.4694 72.7607 70.4694 77.282C70.4694 77.6128 70.4694 79.5426 70.2488 82.7957C69.9732 86.104 69.4769 88.916 69.091 90.0187H78.5194C77.2513 85.8283 77.3616 81.5827 77.3616 77.3371C77.3616 71.3272 75.8729 65.4275 68.5947 65.4275C66.1135 65.4275 64.2389 67.3573 62.7502 69.6179C62.7502 63.6631 62.6399 58.0391 63.5772 52.3048H54.8104Z" fill="black"/>
<path d="M80.9201 57.3223C82.905 58.8661 84.6694 60.4651 86.2684 62.5052C87.9776 60.4651 89.6318 58.9213 91.6167 57.3223C89.5766 55.8336 87.8122 54.0692 86.2684 52.0842C84.5591 54.1243 82.905 55.7233 80.9201 57.3223ZM90.6794 90.0187C90.3485 88.3094 90.0729 86.4899 89.9075 84.505C89.5215 80.5902 89.5766 78.2193 89.5766 77.8334C89.5766 73.9737 89.9626 69.673 90.6794 65.4275H81.7471C82.5191 69.7282 82.9601 73.8635 82.9601 77.7782C82.9601 78.0539 82.905 79.2669 82.905 81.4724C82.8499 83.6779 82.4639 86.5451 81.7471 90.0187H90.6794Z" fill="black"/>
<path d="M98.8001 80.8659L101.392 55.2271H94.1685L96.4843 80.8659H98.8001ZM97.587 83.7882C95.8227 83.7882 94.2237 85.0012 94.2237 86.931C94.2237 88.8608 95.8227 90.1841 97.587 90.1841C99.3514 90.1841 101.006 88.8608 101.006 86.931C101.006 85.0012 99.2963 83.7882 97.587 83.7882Z" fill="black"/>
</svg>
