<svg width="190" height="585" viewBox="0 0 190 585" fill="none" xmlns="http://www.w3.org/2000/svg">
<path d="M95.4864 0L111.093 29.235L139.409 10.146L138.732 42.8297L173.27 38.2598L156.463 66.9046L189.311 77.9007L160.225 95.9446L183.858 119.988L149.157 123.297L158.161 154.879L125.793 142.695L118.105 174.581L95.4864 149.696L72.8677 174.581L65.1797 142.695L32.8122 154.879L41.8159 123.297L7.11451 119.988L30.7474 95.9446L1.66177 77.9007L34.5098 66.9046L17.7031 38.2598L52.2412 42.8297L51.5636 10.146L79.8795 29.235L95.4864 0Z" fill="#F0BBF3"/>
<path d="M95.4864 18.5533L107.824 41.6648L130.209 26.5742L129.674 52.4119L156.977 48.7992L143.691 71.4442L169.659 80.137L146.665 94.4014L165.348 113.408L137.915 116.024L145.033 140.991L119.445 131.36L113.367 156.567L95.4864 136.894L77.6055 156.567L71.5278 131.36L45.94 140.991L53.0578 116.024L25.6249 113.408L44.3077 94.4014L21.3143 80.137L47.282 71.4442L33.9956 48.7992L61.2994 52.4119L60.7638 26.5742L83.1486 41.6648L95.4864 18.5533Z" stroke="#1E1E1E" stroke-width="5.50277"/>
<path d="M70.0742 80.364C69.7101 80.364 69.5281 80.1889 69.5281 79.8388V69.7149C69.5281 69.3928 69.6611 69.2318 69.9272 69.2318H73.2878C73.5399 69.2318 73.6659 69.3718 73.6659 69.6518V70.597C73.6659 70.681 73.6869 70.7371 73.7289 70.7651C73.7849 70.7931 73.8549 70.7651 73.9389 70.681C74.247 70.359 74.5761 70.0719 74.9261 69.8199C75.2762 69.5678 75.6543 69.3718 76.0604 69.2318C76.4664 69.0777 76.8795 69.0007 77.2996 69.0007C77.9997 69.0007 78.6089 69.1757 79.127 69.5258C79.6591 69.8619 80.0442 70.359 80.2822 71.0171C80.3102 71.0731 80.3452 71.1011 80.3872 71.1011C80.4292 71.0871 80.4782 71.0521 80.5342 70.9961C80.8003 70.632 81.1364 70.303 81.5424 70.0089C81.9485 69.7149 82.3826 69.4768 82.8447 69.2948C83.3068 69.1127 83.7479 69.0217 84.168 69.0217C85.1202 69.0217 85.8973 69.3298 86.4994 69.9459C87.1015 70.548 87.4026 71.4092 87.4026 72.5294V79.7338C87.4026 80.1539 87.1856 80.364 86.7515 80.364H83.6849C83.5028 80.364 83.3768 80.3289 83.3068 80.2589C83.2368 80.1749 83.2018 80.0349 83.2018 79.8388V72.9915C83.2018 72.6694 83.0968 72.4244 82.8867 72.2564C82.6907 72.0743 82.4316 71.9833 82.1096 71.9833C81.9415 71.9833 81.7665 72.0253 81.5845 72.1093C81.4164 72.1793 81.2554 72.2774 81.1014 72.4034C80.9613 72.5154 80.8353 72.6484 80.7233 72.8025C80.6533 72.9005 80.6043 72.9985 80.5763 73.0965C80.5623 73.1805 80.5553 73.2716 80.5553 73.3696V79.7338C80.5553 80.1539 80.3452 80.364 79.9251 80.364H76.8585C76.6905 80.364 76.5645 80.3289 76.4804 80.2589C76.4104 80.1749 76.3754 80.0349 76.3754 79.8388V72.9915C76.3754 72.6694 76.2774 72.4244 76.0814 72.2564C75.8853 72.0743 75.6193 71.9833 75.2832 71.9833C74.9752 71.9833 74.6881 72.0673 74.422 72.2353C74.156 72.4034 73.9249 72.6694 73.7289 73.0335V79.7548C73.7289 80.1609 73.4979 80.364 73.0358 80.364H70.0742ZM92.9211 75.9111C92.9211 76.3312 93.0121 76.6812 93.1942 76.9613C93.3902 77.2413 93.6493 77.4514 93.9713 77.5914C94.3074 77.7314 94.6785 77.8014 95.0845 77.8014C95.4486 77.8014 95.8057 77.7174 96.1557 77.5494C96.5058 77.3814 96.9119 77.0733 97.374 76.6252C97.43 76.5692 97.479 76.5412 97.521 76.5412C97.577 76.5272 97.675 76.5482 97.8151 76.6042L99.7265 77.3814C99.9785 77.4794 100.007 77.6474 99.8105 77.8855C99.3064 78.5856 98.7953 79.1317 98.2772 79.5238C97.7731 79.9159 97.213 80.1889 96.5968 80.3429C95.9947 80.497 95.3016 80.574 94.5174 80.574C93.3972 80.574 92.389 80.3359 91.4928 79.8599C90.5967 79.3838 89.8895 78.7256 89.3714 77.8855C88.8533 77.0453 88.5943 76.0791 88.5943 74.9869C88.5943 73.7967 88.8603 72.7535 89.3924 71.8573C89.9385 70.9611 90.6527 70.268 91.5348 69.7779C92.431 69.2738 93.3972 69.0217 94.4334 69.0217C95.5396 69.0217 96.5198 69.2598 97.374 69.7359C98.2282 70.212 98.9003 70.8981 99.3904 71.7943C99.8945 72.6764 100.147 73.7546 100.147 75.0289C100.147 75.2109 100.126 75.344 100.084 75.428C100.056 75.498 99.9505 75.54 99.7685 75.554H93.2362C93.1382 75.554 93.0611 75.582 93.0051 75.638C92.9491 75.694 92.9211 75.785 92.9211 75.9111ZM95.7147 73.3906C95.8547 73.3906 95.9457 73.3766 95.9877 73.3486C96.0437 73.3066 96.0717 73.2225 96.0717 73.0965C96.0717 72.9145 96.0227 72.6974 95.9247 72.4454C95.8267 72.1933 95.6727 71.9693 95.4626 71.7733C95.2526 71.5772 94.9725 71.4792 94.6224 71.4792C94.3424 71.4792 94.0693 71.5492 93.8033 71.6892C93.5512 71.8153 93.3482 72.0183 93.1942 72.2984C93.0541 72.5784 92.9841 72.9355 92.9841 73.3696L95.7147 73.3906ZM105.31 75.9111C105.31 76.3312 105.401 76.6812 105.583 76.9613C105.779 77.2413 106.038 77.4514 106.36 77.5914C106.697 77.7314 107.068 77.8014 107.474 77.8014C107.838 77.8014 108.195 77.7174 108.545 77.5494C108.895 77.3814 109.301 77.0733 109.763 76.6252C109.819 76.5692 109.868 76.5412 109.91 76.5412C109.966 76.5272 110.064 76.5482 110.204 76.6042L112.116 77.3814C112.368 77.4794 112.396 77.6474 112.2 77.8855C111.696 78.5856 111.184 79.1317 110.666 79.5238C110.162 79.9159 109.602 80.1889 108.986 80.3429C108.384 80.497 107.691 80.574 106.907 80.574C105.786 80.574 104.778 80.3359 103.882 79.8599C102.986 79.3838 102.279 78.7256 101.761 77.8855C101.242 77.0453 100.983 76.0791 100.983 74.9869C100.983 73.7967 101.249 72.7535 101.782 71.8573C102.328 70.9611 103.042 70.268 103.924 69.7779C104.82 69.2738 105.786 69.0217 106.823 69.0217C107.929 69.0217 108.909 69.2598 109.763 69.7359C110.617 70.212 111.289 70.8981 111.78 71.7943C112.284 72.6764 112.536 73.7546 112.536 75.0289C112.536 75.2109 112.515 75.344 112.473 75.428C112.445 75.498 112.34 75.54 112.158 75.554H105.625C105.527 75.554 105.45 75.582 105.394 75.638C105.338 75.694 105.31 75.785 105.31 75.9111ZM108.104 73.3906C108.244 73.3906 108.335 73.3766 108.377 73.3486C108.433 73.3066 108.461 73.2225 108.461 73.0965C108.461 72.9145 108.412 72.6974 108.314 72.4454C108.216 72.1933 108.062 71.9693 107.852 71.7733C107.642 71.5772 107.362 71.4792 107.012 71.4792C106.732 71.4792 106.458 71.5492 106.192 71.6892C105.94 71.8153 105.737 72.0183 105.583 72.2984C105.443 72.5784 105.373 72.9355 105.373 73.3696L108.104 73.3906ZM119.283 72.0673C119.101 72.0673 119.01 72.1583 119.01 72.3404V76.3732C119.01 76.7372 119.122 77.0173 119.346 77.2133C119.584 77.3954 119.962 77.4864 120.48 77.4864H121.383C121.495 77.4864 121.586 77.5284 121.656 77.6124C121.726 77.6964 121.761 77.7944 121.761 77.9065L121.74 79.5868C121.74 79.9229 121.537 80.1329 121.131 80.2169C120.823 80.2589 120.508 80.2939 120.186 80.3219C119.878 80.3359 119.563 80.3499 119.241 80.364C118.933 80.364 118.617 80.364 118.295 80.364C117.287 80.364 116.454 80.1259 115.796 79.6498C115.138 79.1597 114.809 78.4666 114.809 77.5704V72.4454C114.809 72.1933 114.704 72.0673 114.494 72.0673H113.485C113.149 72.0673 112.981 71.9133 112.981 71.6052V69.6308C112.981 69.3648 113.135 69.2318 113.443 69.2318H114.683C114.837 69.2318 114.921 69.1477 114.935 68.9797L115.271 65.8711C115.299 65.591 115.425 65.451 115.649 65.451H118.737C119.003 65.451 119.136 65.605 119.136 65.9131V68.9797C119.136 69.1337 119.213 69.2108 119.367 69.2108H121.299C121.607 69.2108 121.761 69.3438 121.761 69.6098V71.6052C121.761 71.9133 121.586 72.0673 121.236 72.0673H119.283ZM63.6415 94.2318C63.8235 94.2318 63.9566 94.2808 64.0406 94.3788C64.1246 94.4628 64.1666 94.5678 64.1666 94.6938V96.6682C64.1666 96.9343 64.0126 97.0673 63.7045 97.0673H62.4023C62.2342 97.0673 62.1502 97.1513 62.1502 97.3194V104.902C62.1502 105.21 62.0172 105.364 61.7511 105.364H58.3275C58.0754 105.364 57.9494 105.224 57.9494 104.944V97.2774C57.9494 97.1373 57.8934 97.0673 57.7813 97.0673H56.6051C56.2971 97.0673 56.143 96.9343 56.143 96.6682V94.6938C56.143 94.5678 56.178 94.4628 56.248 94.3788C56.3321 94.2808 56.4651 94.2318 56.6471 94.2318H57.6553C57.8514 94.2318 57.9494 94.1057 57.9494 93.8537V92.7405C57.9494 91.8303 58.2434 91.1091 58.8316 90.577C59.4337 90.0449 60.2458 89.7789 61.268 89.7789H63.6415C64.0476 89.7789 64.2506 89.9609 64.2506 90.325L64.2716 92.0893C64.2716 92.2014 64.2366 92.2994 64.1666 92.3834C64.1106 92.4674 64.0196 92.5094 63.8936 92.5094H62.9904C62.7523 92.5094 62.5353 92.6144 62.3392 92.8245C62.1432 93.0345 62.0452 93.2866 62.0452 93.5806V93.9587C62.0452 94.1407 62.1362 94.2318 62.3182 94.2318H63.6415ZM65.9513 105.364C65.7413 105.364 65.5942 105.322 65.5102 105.238C65.4402 105.154 65.4052 105.021 65.4052 104.839V94.7149C65.4052 94.3928 65.5382 94.2318 65.8043 94.2318H69.0809C69.333 94.2318 69.459 94.3718 69.459 94.6518V95.8281C69.459 95.9261 69.501 95.9891 69.585 96.0171C69.669 96.0311 69.7461 95.9891 69.8161 95.8911C70.0401 95.541 70.3272 95.226 70.6772 94.9459C71.0273 94.6658 71.3984 94.4418 71.7905 94.2738C72.1825 94.1057 72.5396 94.0217 72.8617 94.0217C73.3798 94.0217 73.6388 94.1617 73.6388 94.4418V97.6344C73.6388 97.9285 73.4988 98.0405 73.2187 97.9705C72.8967 97.8865 72.5606 97.8305 72.2105 97.8025C71.8745 97.7605 71.6084 97.7394 71.4124 97.7394C71.1883 97.7394 70.9643 97.7815 70.7402 97.8655C70.5302 97.9355 70.3342 98.0405 70.1521 98.1805C69.9841 98.3206 69.8511 98.4746 69.7531 98.6426C69.655 98.8107 69.606 98.9857 69.606 99.1677V104.755C69.606 105.161 69.375 105.364 68.9129 105.364H65.9513ZM79.144 104.755C79.144 104.979 79.088 105.14 78.976 105.238C78.864 105.322 78.6889 105.364 78.4509 105.364H75.4893C75.2793 105.364 75.1322 105.322 75.0482 105.238C74.9782 105.154 74.9432 105.021 74.9432 104.839V94.7149C74.9432 94.3928 75.0762 94.2318 75.3423 94.2318H78.766C79.018 94.2318 79.144 94.3718 79.144 94.6518V104.755ZM79.144 92.6985C79.144 93.1045 78.913 93.3076 78.4509 93.3076H75.4893C75.2793 93.3076 75.1322 93.2656 75.0482 93.1816C74.9782 93.0835 74.9432 92.9435 74.9432 92.7615V90.262C74.9432 89.9399 75.0762 89.7789 75.3423 89.7789H78.766C79.018 89.7789 79.144 89.9259 79.144 90.22V92.6985ZM84.7779 100.911C84.7779 101.331 84.8689 101.681 85.051 101.961C85.247 102.241 85.506 102.451 85.8281 102.591C86.1642 102.731 86.5353 102.801 86.9413 102.801C87.3054 102.801 87.6625 102.717 88.0125 102.549C88.3626 102.381 88.7687 102.073 89.2308 101.625C89.2868 101.569 89.3358 101.541 89.3778 101.541C89.4338 101.527 89.5318 101.548 89.6719 101.604L91.5832 102.381C91.8353 102.479 91.8633 102.647 91.6673 102.885C91.1632 103.586 90.6521 104.132 90.134 104.524C89.6299 104.916 89.0698 105.189 88.4536 105.343C87.8515 105.497 87.1584 105.574 86.3742 105.574C85.254 105.574 84.2458 105.336 83.3496 104.86C82.4534 104.384 81.7463 103.726 81.2282 102.885C80.7101 102.045 80.4511 101.079 80.4511 99.9869C80.4511 98.7967 80.7171 97.7535 81.2492 96.8573C81.7953 95.9611 82.5095 95.268 83.3916 94.7779C84.2878 94.2738 85.254 94.0217 86.2902 94.0217C87.3964 94.0217 88.3766 94.2598 89.2308 94.7359C90.085 95.212 90.7571 95.8981 91.2472 96.7943C91.7513 97.6764 92.0033 98.7546 92.0033 100.029C92.0033 100.211 91.9823 100.344 91.9403 100.428C91.9123 100.498 91.8073 100.54 91.6253 100.554H85.093C84.9949 100.554 84.9179 100.582 84.8619 100.638C84.8059 100.694 84.7779 100.785 84.7779 100.911ZM87.5715 98.3906C87.7115 98.3906 87.8025 98.3766 87.8445 98.3486C87.9005 98.3066 87.9285 98.2225 87.9285 98.0965C87.9285 97.9145 87.8795 97.6974 87.7815 97.4454C87.6835 97.1933 87.5294 96.9693 87.3194 96.7733C87.1094 96.5772 86.8293 96.4792 86.4792 96.4792C86.1992 96.4792 85.9261 96.5492 85.6601 96.6892C85.408 96.8153 85.205 97.0183 85.051 97.2984C84.9109 97.5784 84.8409 97.9355 84.8409 98.3696L87.5715 98.3906ZM93.8064 105.364C93.4423 105.364 93.2603 105.189 93.2603 104.839V94.7149C93.2603 94.3928 93.3933 94.2318 93.6594 94.2318H97.041C97.2931 94.2318 97.4191 94.3718 97.4191 94.6518V95.597C97.4191 95.681 97.4401 95.7371 97.4821 95.7651C97.5381 95.7931 97.6082 95.7651 97.6922 95.681C97.9862 95.359 98.3083 95.0719 98.6584 94.8199C99.0084 94.5678 99.3795 94.3718 99.7716 94.2318C100.178 94.0917 100.598 94.0217 101.032 94.0217C102.012 94.0217 102.803 94.3298 103.405 94.9459C104.021 95.562 104.329 96.3882 104.329 97.4244V104.734C104.329 105.154 104.119 105.364 103.699 105.364H100.612C100.43 105.364 100.304 105.329 100.234 105.259C100.164 105.175 100.129 105.035 100.129 104.839V97.9915C100.129 97.6694 100.024 97.4244 99.8136 97.2564C99.6175 97.0743 99.3515 96.9833 99.0154 96.9833C98.8054 96.9833 98.6023 97.0253 98.4063 97.1093C98.2243 97.1793 98.0562 97.2914 97.9022 97.4454C97.7482 97.5994 97.6012 97.7955 97.4611 98.0335V104.755C97.4611 105.161 97.2301 105.364 96.768 105.364H93.8064ZM113.54 105.364C113.4 105.364 113.274 105.329 113.162 105.259C113.064 105.189 113.015 105.063 113.015 104.881V104.482C113.015 104.384 112.98 104.328 112.91 104.314C112.84 104.3 112.77 104.328 112.7 104.398C112.434 104.65 112.154 104.867 111.86 105.049C111.58 105.217 111.265 105.343 110.915 105.427C110.579 105.525 110.193 105.574 109.759 105.574C108.933 105.574 108.205 105.364 107.575 104.944C106.945 104.51 106.448 103.866 106.084 103.011C105.734 102.157 105.559 101.1 105.559 99.8399C105.559 98.6636 105.762 97.6414 106.168 96.7733C106.588 95.9051 107.134 95.233 107.806 94.7569C108.478 94.2668 109.199 94.0217 109.969 94.0217C110.446 94.0217 110.887 94.0987 111.293 94.2528C111.713 94.4068 112.14 94.6938 112.574 95.1139C112.686 95.1979 112.777 95.233 112.847 95.219C112.931 95.2049 112.973 95.1139 112.973 94.9459V90.22C112.973 89.9259 113.099 89.7789 113.351 89.7789H116.754C117.02 89.7789 117.153 89.9399 117.153 90.262V104.839C117.153 105.021 117.111 105.154 117.027 105.238C116.957 105.322 116.81 105.364 116.586 105.364H113.54ZM112.952 97.4244C112.728 97.1583 112.504 96.9623 112.28 96.8363C112.07 96.6962 111.804 96.6262 111.482 96.6262C111.16 96.6262 110.866 96.7242 110.6 96.9203C110.347 97.1163 110.151 97.4454 110.011 97.9075C109.871 98.3696 109.801 99.0067 109.801 99.8189C109.801 100.617 109.864 101.254 109.99 101.73C110.13 102.206 110.326 102.549 110.579 102.759C110.831 102.955 111.132 103.053 111.482 103.053C111.762 103.053 112.007 102.997 112.217 102.885C112.441 102.759 112.616 102.591 112.742 102.381C112.882 102.171 112.952 101.933 112.952 101.667V97.4244ZM125.853 97.4244C125.643 97.1863 125.37 96.9693 125.034 96.7733C124.698 96.5632 124.271 96.4582 123.753 96.4582C123.388 96.4582 123.073 96.5212 122.807 96.6472C122.541 96.7733 122.408 96.9553 122.408 97.1933C122.408 97.2914 122.45 97.3894 122.534 97.4874C122.632 97.5854 122.87 97.6694 123.248 97.7394L125.475 98.2015C126.777 98.4676 127.687 98.9297 128.205 99.5878C128.738 100.246 129.004 100.981 129.004 101.793C129.004 102.605 128.78 103.292 128.331 103.852C127.883 104.412 127.26 104.839 126.462 105.133C125.664 105.427 124.74 105.574 123.69 105.574C122.345 105.574 121.225 105.35 120.329 104.902C119.433 104.454 118.81 103.915 118.46 103.285C118.39 103.159 118.354 103.039 118.354 102.927C118.354 102.815 118.404 102.731 118.502 102.675L120.329 101.751C120.511 101.667 120.644 101.632 120.728 101.646C120.826 101.66 120.91 101.709 120.98 101.793C121.148 101.975 121.33 102.164 121.526 102.36C121.736 102.542 122.009 102.696 122.345 102.822C122.695 102.948 123.15 103.004 123.711 102.99C124.005 102.976 124.271 102.948 124.509 102.906C124.747 102.85 124.936 102.766 125.076 102.654C125.216 102.542 125.286 102.402 125.286 102.234C125.286 102.094 125.223 101.968 125.097 101.856C124.985 101.744 124.726 101.653 124.32 101.583L122.177 101.205C121.113 101.009 120.28 100.645 119.678 100.113C119.076 99.5668 118.768 98.8177 118.754 97.8655C118.754 97.1373 118.943 96.4862 119.321 95.9121C119.713 95.324 120.287 94.8619 121.043 94.5258C121.799 94.1897 122.716 94.0217 123.795 94.0217C124.943 94.0217 125.916 94.2318 126.714 94.6518C127.526 95.0579 128.086 95.52 128.394 96.0381C128.464 96.1361 128.521 96.2482 128.563 96.3742C128.605 96.5002 128.549 96.5982 128.394 96.6682L126.462 97.5924C126.336 97.6484 126.224 97.6624 126.126 97.6344C126.028 97.5924 125.937 97.5224 125.853 97.4244ZM134.444 104.755C134.444 105.161 134.213 105.364 133.751 105.364H130.6C130.222 105.364 130.033 105.189 130.033 104.839V101.688C130.033 101.38 130.166 101.226 130.432 101.226H134.066C134.318 101.226 134.444 101.366 134.444 101.646V104.755ZM133.625 99.1887C133.611 99.3988 133.548 99.5528 133.436 99.6508C133.338 99.7348 133.17 99.7769 132.932 99.7769H131.482C131.272 99.7769 131.132 99.7348 131.062 99.6508C131.006 99.5668 130.964 99.4338 130.936 99.2517L129.886 90.262C129.872 90.1079 129.9 89.9889 129.97 89.9049C130.054 89.8209 130.159 89.7789 130.285 89.7789H134.255C134.535 89.7789 134.661 89.9259 134.633 90.22L133.625 99.1887Z" fill="black"/>
<path d="M95.4864 407.845L111.093 437.08L139.409 417.991L138.732 450.675L173.27 446.105L156.463 474.75L189.311 485.746L160.225 503.789L183.858 527.832L149.157 531.142L158.161 562.724L125.793 550.54L118.105 582.426L95.4864 557.541L72.8677 582.426L65.1797 550.54L32.8122 562.724L41.8159 531.142L7.11451 527.832L30.7474 503.789L1.66177 485.746L34.5098 474.75L17.7031 446.105L52.2412 450.675L51.5636 417.991L79.8795 437.08L95.4864 407.845Z" fill="#ABAEFF"/>
<path d="M95.3414 426.704L107.679 449.816L130.064 434.725L129.528 460.563L156.832 456.95L143.546 479.595L169.514 488.288L146.52 502.552L165.203 521.559L137.77 524.175L144.888 549.142L119.3 539.511L113.222 564.718L95.3414 545.045L77.4605 564.718L71.3828 539.511L45.7949 549.142L52.9128 524.175L25.4799 521.559L44.1626 502.552L21.1693 488.288L47.137 479.595L33.8506 456.95L61.1544 460.563L60.6187 434.725L83.0036 449.816L95.3414 426.704Z" stroke="#1E1E1E" stroke-width="5.50277"/>
<path d="M60.4069 490.224C60.4069 490.448 60.3509 490.609 60.2389 490.707C60.1269 490.791 59.9519 490.833 59.7138 490.833H56.7312C56.3531 490.833 56.1641 490.658 56.1641 490.308L56.2691 475.731C56.2691 475.409 56.4022 475.248 56.6682 475.248H60.0289C60.2809 475.248 60.4069 475.395 60.4069 475.689V490.224ZM66.0608 486.38C66.0608 486.801 66.1519 487.151 66.3339 487.431C66.5299 487.711 66.789 487.921 67.111 488.061C67.4471 488.201 67.8182 488.271 68.2243 488.271C68.5883 488.271 68.9454 488.187 69.2955 488.019C69.6455 487.851 70.0516 487.543 70.5137 487.095C70.5697 487.039 70.6187 487.011 70.6607 487.011C70.7168 486.997 70.8148 487.018 70.9548 487.074L72.8662 487.851C73.1182 487.949 73.1462 488.117 72.9502 488.355C72.4461 489.055 71.935 489.601 71.4169 489.993C70.9128 490.385 70.3527 490.658 69.7366 490.812C69.1344 490.966 68.4413 491.043 67.6571 491.043C66.5369 491.043 65.5287 490.805 64.6326 490.329C63.7364 489.853 63.0292 489.195 62.5111 488.355C61.993 487.515 61.734 486.549 61.734 485.456C61.734 484.266 62 483.223 62.5321 482.327C63.0782 481.431 63.7924 480.737 64.6746 480.247C65.5707 479.743 66.5369 479.491 67.5731 479.491C68.6793 479.491 69.6595 479.729 70.5137 480.205C71.3679 480.681 72.04 481.368 72.5301 482.264C73.0342 483.146 73.2863 484.224 73.2863 485.498C73.2863 485.68 73.2653 485.813 73.2232 485.897C73.1952 485.967 73.0902 486.009 72.9082 486.023H66.3759C66.2779 486.023 66.2009 486.051 66.1448 486.107C66.0888 486.163 66.0608 486.254 66.0608 486.38ZM68.8544 483.86C68.9944 483.86 69.0854 483.846 69.1274 483.818C69.1834 483.776 69.2115 483.692 69.2115 483.566C69.2115 483.384 69.1624 483.167 69.0644 482.915C68.9664 482.663 68.8124 482.439 68.6023 482.243C68.3923 482.047 68.1122 481.949 67.7622 481.949C67.4821 481.949 67.2091 482.019 66.943 482.159C66.691 482.285 66.4879 482.488 66.3339 482.768C66.1939 483.048 66.1238 483.405 66.1238 483.839L68.8544 483.86ZM80.2564 489.951C79.8783 490.259 79.4372 490.518 78.9331 490.728C78.443 490.938 77.8689 491.043 77.2108 491.043C76.1605 491.043 75.3344 490.749 74.7323 490.161C74.1441 489.573 73.8501 488.845 73.8501 487.977C73.8501 487.151 74.1091 486.43 74.6272 485.813C75.1593 485.197 75.9085 484.721 76.8747 484.385C77.8409 484.035 78.9821 483.86 80.2984 483.86H80.4454C80.5014 483.86 80.5644 483.846 80.6344 483.818C80.7184 483.776 80.7605 483.692 80.7605 483.566V483.209C80.7605 482.817 80.6554 482.516 80.4454 482.306C80.2494 482.096 79.9413 481.991 79.5212 481.991C79.2271 481.991 78.9261 482.061 78.618 482.201C78.31 482.327 78.0649 482.586 77.8829 482.978C77.8269 483.09 77.7639 483.167 77.6938 483.209C77.6378 483.237 77.5118 483.237 77.3158 483.209L74.5642 482.663C74.4662 482.635 74.3892 482.586 74.3332 482.516C74.2912 482.432 74.3192 482.257 74.4172 481.991C74.7393 481.094 75.3554 480.457 76.2656 480.079C77.1897 479.687 78.338 479.491 79.7102 479.491C81.0125 479.491 82.0277 479.638 82.7558 479.932C83.484 480.226 83.9951 480.632 84.2891 481.15C84.5972 481.669 84.7512 482.271 84.7512 482.957V490.266C84.7512 490.476 84.7162 490.623 84.6462 490.707C84.5902 490.791 84.4642 490.833 84.2681 490.833H81.3906C81.2085 490.833 81.0755 490.763 80.9915 490.623C80.9215 490.469 80.8725 490.294 80.8445 490.098L80.8235 489.951C80.7815 489.671 80.5924 489.671 80.2564 489.951ZM80.7605 486.128C80.7605 485.876 80.6554 485.75 80.4454 485.75H80.3614C80.1933 485.75 79.9693 485.785 79.6892 485.855C79.4232 485.911 79.1571 486.009 78.8911 486.149C78.625 486.275 78.394 486.444 78.1979 486.654C78.0159 486.864 77.9249 487.116 77.9249 487.41C77.9249 487.704 78.0299 487.942 78.24 488.124C78.45 488.306 78.7441 488.397 79.1221 488.397C79.4022 488.397 79.6332 488.355 79.8153 488.271C80.0113 488.187 80.1653 488.096 80.2774 487.998C80.4034 487.886 80.5154 487.774 80.6134 487.662C80.7114 487.536 80.7605 487.396 80.7605 487.242V486.128ZM97.0116 479.701C97.1796 479.701 97.2916 479.764 97.3477 479.89C97.4177 480.016 97.4247 480.156 97.3687 480.31L93.2728 490.308C93.1328 490.658 92.8738 490.833 92.4957 490.833H90.5213C90.1432 490.833 89.8842 490.658 89.7442 490.308L85.6693 480.31C85.6133 480.156 85.6203 480.016 85.6904 479.89C85.7744 479.764 85.9004 479.701 86.0684 479.701H89.6181C89.7442 479.701 89.8562 479.743 89.9542 479.827C90.0522 479.911 90.1222 480.009 90.1642 480.121L92.0126 484.973C92.0966 485.239 92.2016 485.232 92.3277 484.952L94.113 480.121C94.169 480.009 94.239 479.911 94.3231 479.827C94.4211 479.743 94.5331 479.701 94.6591 479.701H97.0116ZM101.669 486.38C101.669 486.801 101.76 487.151 101.942 487.431C102.139 487.711 102.398 487.921 102.72 488.061C103.056 488.201 103.427 488.271 103.833 488.271C104.197 488.271 104.554 488.187 104.904 488.019C105.254 487.851 105.66 487.543 106.122 487.095C106.178 487.039 106.227 487.011 106.269 487.011C106.325 486.997 106.423 487.018 106.563 487.074L108.475 487.851C108.727 487.949 108.755 488.117 108.559 488.355C108.055 489.055 107.544 489.601 107.025 489.993C106.521 490.385 105.961 490.658 105.345 490.812C104.743 490.966 104.05 491.043 103.266 491.043C102.146 491.043 101.137 490.805 100.241 490.329C99.345 489.853 98.6378 489.195 98.1197 488.355C97.6016 487.515 97.3426 486.549 97.3426 485.456C97.3426 484.266 97.6086 483.223 98.1407 482.327C98.6868 481.431 99.401 480.737 100.283 480.247C101.179 479.743 102.146 479.491 103.182 479.491C104.288 479.491 105.268 479.729 106.122 480.205C106.976 480.681 107.649 481.368 108.139 482.264C108.643 483.146 108.895 484.224 108.895 485.498C108.895 485.68 108.874 485.813 108.832 485.897C108.804 485.967 108.699 486.009 108.517 486.023H101.984C101.886 486.023 101.809 486.051 101.753 486.107C101.697 486.163 101.669 486.254 101.669 486.38ZM104.463 483.86C104.603 483.86 104.694 483.846 104.736 483.818C104.792 483.776 104.82 483.692 104.82 483.566C104.82 483.384 104.771 483.167 104.673 482.915C104.575 482.663 104.421 482.439 104.211 482.243C104.001 482.047 103.721 481.949 103.371 481.949C103.091 481.949 102.818 482.019 102.552 482.159C102.3 482.285 102.096 482.488 101.942 482.768C101.802 483.048 101.732 483.405 101.732 483.839L104.463 483.86ZM119.482 488.103C119.804 488.103 120.098 488.019 120.364 487.851C120.644 487.683 120.875 487.48 121.057 487.242V480.31C121.057 479.904 121.288 479.701 121.75 479.701H124.754C125.118 479.701 125.3 479.883 125.3 480.247L125.216 490.371C125.216 490.679 125.083 490.833 124.817 490.833H121.498C121.246 490.833 121.12 490.693 121.12 490.413V489.489C121.12 489.405 121.092 489.356 121.036 489.342C120.994 489.314 120.938 489.335 120.868 489.405C120.392 489.965 119.867 490.378 119.293 490.644C118.719 490.91 118.081 491.043 117.381 491.043C116.779 491.043 116.24 490.91 115.764 490.644C115.302 490.364 114.931 489.965 114.651 489.447C114.385 488.915 114.252 488.278 114.252 487.536V480.331C114.252 479.911 114.469 479.701 114.903 479.701H117.969C118.292 479.701 118.453 479.883 118.453 480.247V487.074C118.453 487.396 118.544 487.648 118.726 487.83C118.922 488.012 119.174 488.103 119.482 488.103ZM127.518 490.833C127.308 490.833 127.161 490.791 127.077 490.707C127.007 490.623 126.972 490.49 126.972 490.308V480.184C126.972 479.862 127.105 479.701 127.371 479.701H130.647C130.899 479.701 131.025 479.841 131.025 480.121V481.297C131.025 481.396 131.067 481.459 131.151 481.487C131.235 481.501 131.312 481.459 131.382 481.361C131.606 481.01 131.893 480.695 132.244 480.415C132.594 480.135 132.965 479.911 133.357 479.743C133.749 479.575 134.106 479.491 134.428 479.491C134.946 479.491 135.205 479.631 135.205 479.911V483.104C135.205 483.398 135.065 483.51 134.785 483.44C134.463 483.356 134.127 483.3 133.777 483.272C133.441 483.23 133.175 483.209 132.979 483.209C132.755 483.209 132.531 483.251 132.307 483.335C132.097 483.405 131.901 483.51 131.718 483.65C131.55 483.79 131.417 483.944 131.319 484.112C131.221 484.28 131.172 484.455 131.172 484.637V490.224C131.172 490.63 130.941 490.833 130.479 490.833H127.518ZM65.4082 515.833C65.0442 515.833 64.8621 515.658 64.8621 515.308V500.731C64.8621 500.409 64.9952 500.248 65.2612 500.248H68.6219C68.8739 500.248 68.9999 500.395 68.9999 500.689V505.919C68.9999 506.003 69.0209 506.059 69.063 506.087C69.119 506.101 69.189 506.073 69.273 506.003C69.6791 505.611 70.0641 505.31 70.4282 505.1C70.8063 504.876 71.1774 504.722 71.5414 504.638C71.9055 504.54 72.2696 504.491 72.6337 504.491C73.6699 504.491 74.475 504.792 75.0491 505.394C75.6232 505.982 75.9103 506.837 75.9103 507.957V515.203C75.9103 515.623 75.7003 515.833 75.2802 515.833H72.1926C72.0105 515.833 71.8845 515.798 71.8145 515.728C71.7445 515.644 71.7095 515.504 71.7095 515.308V508.461C71.7095 508.139 71.6115 507.894 71.4154 507.726C71.2194 507.544 70.9533 507.453 70.6173 507.453C70.4072 507.453 70.2042 507.495 70.0081 507.579C69.8261 507.649 69.6581 507.761 69.504 507.915C69.35 508.069 69.203 508.265 69.063 508.503V515.224C69.063 515.63 68.8319 515.833 68.3698 515.833H65.4082ZM82.9775 516.043C81.8293 516.043 80.8141 515.798 79.9319 515.308C79.0638 514.818 78.3776 514.146 77.8735 513.292C77.3834 512.424 77.1384 511.437 77.1384 510.33C77.1384 509.154 77.3974 508.132 77.9155 507.264C78.4336 506.382 79.1338 505.702 80.016 505.226C80.8981 504.736 81.8923 504.491 82.9985 504.491C84.1748 504.491 85.197 504.743 86.0651 505.247C86.9473 505.751 87.6335 506.445 88.1236 507.327C88.6137 508.195 88.8587 509.196 88.8587 510.33C88.8587 511.437 88.6066 512.424 88.1025 513.292C87.6125 514.146 86.9263 514.818 86.0441 515.308C85.162 515.798 84.1398 516.043 82.9775 516.043ZM82.9985 513.355C83.3766 513.355 83.6847 513.25 83.9227 513.04C84.1608 512.816 84.3358 512.473 84.4478 512.011C84.5599 511.549 84.6159 510.96 84.6159 510.246C84.6159 509.504 84.5599 508.902 84.4478 508.44C84.3358 507.978 84.1608 507.642 83.9227 507.432C83.6847 507.208 83.3766 507.096 82.9985 507.096C82.6345 507.096 82.3264 507.208 82.0744 507.432C81.8363 507.642 81.6613 507.978 81.5493 508.44C81.4372 508.902 81.3812 509.504 81.3812 510.246C81.3812 510.974 81.4372 511.57 81.5493 512.032C81.6613 512.48 81.8363 512.816 82.0744 513.04C82.3264 513.25 82.6345 513.355 82.9985 513.355ZM90.6989 515.833C90.3348 515.833 90.1527 515.658 90.1527 515.308V505.184C90.1527 504.862 90.2858 504.701 90.5518 504.701H93.9125C94.1645 504.701 94.2906 504.841 94.2906 505.121V506.066C94.2906 506.15 94.3116 506.206 94.3536 506.234C94.4096 506.262 94.4796 506.234 94.5636 506.15C94.8717 505.828 95.2007 505.541 95.5508 505.289C95.9009 505.037 96.279 504.841 96.685 504.701C97.0911 504.547 97.5042 504.47 97.9243 504.47C98.6244 504.47 99.2335 504.645 99.7516 504.995C100.284 505.331 100.669 505.828 100.907 506.487C100.935 506.543 100.97 506.571 101.012 506.571C101.054 506.557 101.103 506.522 101.159 506.466C101.425 506.101 101.761 505.772 102.167 505.478C102.573 505.184 103.007 504.946 103.469 504.764C103.931 504.582 104.373 504.491 104.793 504.491C105.745 504.491 106.522 504.799 107.124 505.415C107.726 506.017 108.027 506.879 108.027 507.999V515.203C108.027 515.623 107.81 515.833 107.376 515.833H104.31C104.128 515.833 104.001 515.798 103.931 515.728C103.861 515.644 103.826 515.504 103.826 515.308V508.461C103.826 508.139 103.721 507.894 103.511 507.726C103.315 507.544 103.056 507.453 102.734 507.453C102.566 507.453 102.391 507.495 102.209 507.579C102.041 507.649 101.88 507.747 101.726 507.873C101.586 507.985 101.46 508.118 101.348 508.272C101.278 508.37 101.229 508.468 101.201 508.566C101.187 508.65 101.18 508.741 101.18 508.839V515.203C101.18 515.623 100.97 515.833 100.55 515.833H97.4832C97.3152 515.833 97.1891 515.798 97.1051 515.728C97.0351 515.644 97.0001 515.504 97.0001 515.308V508.461C97.0001 508.139 96.9021 507.894 96.706 507.726C96.51 507.544 96.244 507.453 95.9079 507.453C95.5998 507.453 95.3128 507.537 95.0467 507.705C94.7807 507.873 94.5496 508.139 94.3536 508.503V515.224C94.3536 515.63 94.1225 515.833 93.6604 515.833H90.6989ZM113.546 511.38C113.546 511.801 113.637 512.151 113.819 512.431C114.015 512.711 114.274 512.921 114.596 513.061C114.932 513.201 115.303 513.271 115.709 513.271C116.073 513.271 116.43 513.187 116.78 513.019C117.13 512.851 117.537 512.543 117.999 512.095C118.055 512.039 118.104 512.011 118.146 512.011C118.202 511.997 118.3 512.018 118.44 512.074L120.351 512.851C120.603 512.949 120.631 513.117 120.435 513.355C119.931 514.055 119.42 514.601 118.902 514.993C118.398 515.385 117.838 515.658 117.222 515.812C116.619 515.966 115.926 516.043 115.142 516.043C114.022 516.043 113.014 515.805 112.118 515.329C111.221 514.853 110.514 514.195 109.996 513.355C109.478 512.515 109.219 511.549 109.219 510.456C109.219 509.266 109.485 508.223 110.017 507.327C110.563 506.431 111.277 505.737 112.16 505.247C113.056 504.743 114.022 504.491 115.058 504.491C116.164 504.491 117.144 504.729 117.999 505.205C118.853 505.681 119.525 506.368 120.015 507.264C120.519 508.146 120.771 509.224 120.771 510.498C120.771 510.68 120.75 510.813 120.708 510.897C120.68 510.967 120.575 511.009 120.393 511.023H113.861C113.763 511.023 113.686 511.051 113.63 511.107C113.574 511.163 113.546 511.254 113.546 511.38ZM116.339 508.86C116.479 508.86 116.57 508.846 116.612 508.818C116.668 508.776 116.696 508.692 116.696 508.566C116.696 508.384 116.647 508.167 116.549 507.915C116.451 507.663 116.297 507.439 116.087 507.243C115.877 507.047 115.597 506.949 115.247 506.949C114.967 506.949 114.694 507.019 114.428 507.159C114.176 507.285 113.973 507.488 113.819 507.768C113.679 508.048 113.609 508.405 113.609 508.839L116.339 508.86ZM126.229 515.224C126.229 515.63 125.998 515.833 125.536 515.833H122.385C122.007 515.833 121.818 515.658 121.818 515.308V512.158C121.818 511.85 121.951 511.696 122.217 511.696H125.851C126.103 511.696 126.229 511.836 126.229 512.116V515.224ZM125.41 509.658C125.396 509.868 125.333 510.022 125.221 510.12C125.123 510.204 124.955 510.246 124.717 510.246H123.267C123.057 510.246 122.917 510.204 122.847 510.12C122.791 510.036 122.749 509.903 122.721 509.721L121.671 500.731C121.657 500.577 121.685 500.458 121.755 500.374C121.839 500.29 121.944 500.248 122.07 500.248H126.04C126.32 500.248 126.446 500.395 126.418 500.689L125.41 509.658Z" fill="#1E1E1E"/>
<path d="M95.4864 203.922L111.093 233.158L139.409 214.069L138.732 246.752L173.27 242.182L156.463 270.827L189.311 281.823L160.225 299.867L183.858 323.91L149.157 327.219L158.161 358.801L125.793 346.618L118.105 378.504L95.4864 353.619L72.8677 378.504L65.1797 346.618L32.8122 358.801L41.8159 327.219L7.11451 323.91L30.7474 299.867L1.66177 281.823L34.5098 270.827L17.7031 242.182L52.2412 246.752L51.5636 214.069L79.8795 233.158L95.4864 203.922Z" fill="#EDF53A"/>
<path d="M95.4864 222.476L107.824 245.587L130.209 230.497L129.674 256.334L156.977 252.722L143.691 275.367L169.659 284.059L146.665 298.324L165.348 317.331L137.915 319.947L145.033 344.914L119.445 335.282L113.367 360.489L95.4864 340.817L77.6055 360.489L71.5278 335.282L45.94 344.914L53.0578 319.947L25.6249 317.331L44.3077 298.324L21.3143 284.059L47.282 275.367L33.9956 252.722L61.2994 256.334L60.7638 230.497L83.1486 245.587L95.4864 222.476Z" stroke="#1E1E1E" stroke-width="5.50277"/>
<path d="M91.1822 284.286C91.0422 284.286 90.9161 284.251 90.8041 284.181C90.7061 284.111 90.6571 283.985 90.6571 283.803V283.404C90.6571 283.306 90.6221 283.25 90.5521 283.236C90.4821 283.222 90.412 283.25 90.342 283.32C90.076 283.572 89.7959 283.789 89.5019 283.971C89.2218 284.139 88.9067 284.265 88.5567 284.349C88.2206 284.447 87.8355 284.496 87.4015 284.496C86.5753 284.496 85.8471 284.286 85.217 283.866C84.5869 283.432 84.0898 282.788 83.7257 281.934C83.3757 281.08 83.2006 280.023 83.2006 278.762C83.2006 277.586 83.4037 276.564 83.8097 275.696C84.2298 274.828 84.7759 274.155 85.4481 273.679C86.1202 273.189 86.8413 272.944 87.6115 272.944C88.0876 272.944 88.5287 273.021 88.9348 273.175C89.3548 273.329 89.7819 273.616 90.216 274.036C90.328 274.12 90.419 274.155 90.4891 274.141C90.5731 274.127 90.6151 274.036 90.6151 273.868V269.142C90.6151 268.848 90.7411 268.701 90.9932 268.701H94.3958C94.6619 268.701 94.7949 268.862 94.7949 269.184V283.761C94.7949 283.943 94.7529 284.076 94.6689 284.16C94.5989 284.244 94.4518 284.286 94.2278 284.286H91.1822ZM90.5941 276.347C90.37 276.081 90.146 275.885 89.922 275.759C89.7119 275.619 89.4459 275.549 89.1238 275.549C88.8017 275.549 88.5077 275.647 88.2416 275.843C87.9896 276.039 87.7935 276.368 87.6535 276.83C87.5135 277.292 87.4435 277.929 87.4435 278.741C87.4435 279.539 87.5065 280.177 87.6325 280.653C87.7725 281.129 87.9686 281.472 88.2206 281.682C88.4727 281.878 88.7737 281.976 89.1238 281.976C89.4038 281.976 89.6489 281.92 89.8589 281.808C90.083 281.682 90.258 281.514 90.384 281.304C90.5241 281.094 90.5941 280.856 90.5941 280.59V276.347ZM101.941 284.496C100.793 284.496 99.7773 284.251 98.8951 283.761C98.027 283.271 97.3408 282.599 96.8367 281.745C96.3466 280.877 96.1016 279.89 96.1016 278.783C96.1016 277.607 96.3606 276.585 96.8787 275.717C97.3968 274.835 98.097 274.155 98.9792 273.679C99.8613 273.189 100.856 272.944 101.962 272.944C103.138 272.944 104.16 273.196 105.028 273.7C105.911 274.204 106.597 274.898 107.087 275.78C107.577 276.648 107.822 277.649 107.822 278.783C107.822 279.89 107.57 280.877 107.066 281.745C106.576 282.599 105.89 283.271 105.007 283.761C104.125 284.251 103.103 284.496 101.941 284.496ZM101.962 281.808C102.34 281.808 102.648 281.703 102.886 281.493C103.124 281.269 103.299 280.926 103.411 280.464C103.523 280.002 103.579 279.413 103.579 278.699C103.579 277.957 103.523 277.355 103.411 276.893C103.299 276.431 103.124 276.095 102.886 275.885C102.648 275.661 102.34 275.549 101.962 275.549C101.598 275.549 101.29 275.661 101.038 275.885C100.8 276.095 100.624 276.431 100.512 276.893C100.4 277.355 100.344 277.957 100.344 278.699C100.344 279.427 100.4 280.023 100.512 280.485C100.624 280.933 100.8 281.269 101.038 281.493C101.29 281.703 101.598 281.808 101.962 281.808ZM67.6957 297.944C68.7039 297.944 69.5581 298.133 70.2582 298.511C70.9584 298.875 71.5115 299.33 71.9175 299.877C72.3236 300.423 72.5827 300.969 72.6947 301.515C72.7927 301.865 72.6667 302.047 72.3166 302.061L69.4391 302.208C69.243 302.222 69.124 302.124 69.082 301.914C69.054 301.732 69.005 301.543 68.935 301.347C68.8649 301.137 68.7389 300.962 68.5569 300.822C68.3888 300.668 68.1368 300.591 67.8007 300.591C67.4647 300.591 67.1706 300.696 66.9186 300.906C66.6665 301.116 66.4705 301.452 66.3304 301.914C66.1904 302.362 66.1204 302.964 66.1204 303.72C66.1204 304.49 66.1974 305.114 66.3514 305.59C66.5055 306.052 66.7225 306.388 67.0026 306.598C67.2966 306.794 67.6397 306.892 68.0318 306.892C68.6059 306.892 69.026 306.738 69.292 306.43C69.5721 306.108 69.8451 305.709 70.1112 305.233C70.1392 305.177 70.1812 305.142 70.2372 305.128C70.2932 305.1 70.3912 305.1 70.5313 305.128L72.5057 305.506C72.7017 305.548 72.7647 305.709 72.6947 305.989C72.6387 306.255 72.5057 306.591 72.2956 306.997C72.0856 307.389 71.7845 307.774 71.3924 308.152C71.0004 308.53 70.4963 308.852 69.8801 309.118C69.278 309.37 68.5499 309.496 67.6957 309.496C66.5755 309.496 65.5743 309.258 64.6921 308.782C63.8239 308.292 63.1378 307.62 62.6337 306.766C62.1296 305.898 61.8776 304.897 61.8776 303.762C61.8776 302.6 62.1296 301.585 62.6337 300.717C63.1518 299.849 63.845 299.169 64.7131 298.679C65.5953 298.189 66.5895 297.944 67.6957 297.944ZM74.515 309.286C74.305 309.286 74.1579 309.244 74.0739 309.16C74.0039 309.076 73.9689 308.943 73.9689 308.761V298.637C73.9689 298.315 74.1019 298.154 74.368 298.154H77.6446C77.8967 298.154 78.0227 298.294 78.0227 298.574V299.75C78.0227 299.849 78.0647 299.912 78.1487 299.94C78.2327 299.954 78.3097 299.912 78.3798 299.814C78.6038 299.463 78.8909 299.148 79.2409 298.868C79.591 298.588 79.9621 298.364 80.3542 298.196C80.7462 298.028 81.1033 297.944 81.4254 297.944C81.9435 297.944 82.2025 298.084 82.2025 298.364V301.557C82.2025 301.851 82.0625 301.963 81.7824 301.893C81.4604 301.809 81.1243 301.753 80.7742 301.725C80.4382 301.683 80.1721 301.662 79.9761 301.662C79.752 301.662 79.528 301.704 79.3039 301.788C79.0939 301.858 78.8979 301.963 78.7158 302.103C78.5478 302.243 78.4148 302.397 78.3168 302.565C78.2187 302.733 78.1697 302.908 78.1697 303.09V308.677C78.1697 309.083 77.9387 309.286 77.4766 309.286H74.515ZM88.8098 308.404C88.4317 308.712 87.9906 308.971 87.4865 309.181C86.9964 309.391 86.4223 309.496 85.7642 309.496C84.714 309.496 83.8878 309.202 83.2857 308.614C82.6976 308.026 82.4035 307.298 82.4035 306.43C82.4035 305.604 82.6626 304.883 83.1807 304.266C83.7128 303.65 84.4619 303.174 85.4281 302.838C86.3943 302.488 87.5355 302.313 88.8518 302.313H88.9988C89.0548 302.313 89.1179 302.299 89.1879 302.271C89.2719 302.229 89.3139 302.145 89.3139 302.019V301.662C89.3139 301.27 89.2089 300.969 88.9988 300.759C88.8028 300.549 88.4947 300.444 88.0747 300.444C87.7806 300.444 87.4795 300.514 87.1715 300.654C86.8634 300.78 86.6184 301.039 86.4363 301.431C86.3803 301.543 86.3173 301.62 86.2473 301.662C86.1913 301.69 86.0653 301.69 85.8692 301.662L83.1177 301.116C83.0197 301.088 82.9426 301.039 82.8866 300.969C82.8446 300.885 82.8726 300.71 82.9706 300.444C83.2927 299.547 83.9088 298.91 84.819 298.532C85.7432 298.14 86.8914 297.944 88.2637 297.944C89.5659 297.944 90.5811 298.091 91.3093 298.385C92.0374 298.679 92.5485 299.085 92.8426 299.603C93.1507 300.122 93.3047 300.724 93.3047 301.41V308.719C93.3047 308.929 93.2697 309.076 93.1997 309.16C93.1437 309.244 93.0176 309.286 92.8216 309.286H89.944C89.762 309.286 89.629 309.216 89.5449 309.076C89.4749 308.922 89.4259 308.747 89.3979 308.551L89.3769 308.404C89.3349 308.124 89.1459 308.124 88.8098 308.404ZM89.3139 304.581C89.3139 304.329 89.2089 304.203 88.9988 304.203H88.9148C88.7468 304.203 88.5227 304.238 88.2427 304.308C87.9766 304.364 87.7106 304.462 87.4445 304.602C87.1785 304.728 86.9474 304.897 86.7514 305.107C86.5694 305.317 86.4783 305.569 86.4783 305.863C86.4783 306.157 86.5834 306.395 86.7934 306.577C87.0034 306.759 87.2975 306.85 87.6756 306.85C87.9556 306.85 88.1867 306.808 88.3687 306.724C88.5647 306.64 88.7188 306.549 88.8308 306.451C88.9568 306.339 89.0688 306.227 89.1669 306.115C89.2649 305.989 89.3139 305.849 89.3139 305.695V304.581ZM101.742 298.154C101.924 298.154 102.057 298.203 102.141 298.301C102.225 298.385 102.267 298.49 102.267 298.616V300.591C102.267 300.857 102.113 300.99 101.805 300.99H100.503C100.335 300.99 100.251 301.074 100.251 301.242V308.824C100.251 309.132 100.118 309.286 99.8519 309.286H96.4282C96.1762 309.286 96.0502 309.146 96.0502 308.866V301.2C96.0502 301.06 95.9941 300.99 95.8821 300.99H94.7059C94.3978 300.99 94.2438 300.857 94.2438 300.591V298.616C94.2438 298.49 94.2788 298.385 94.3488 298.301C94.4328 298.203 94.5659 298.154 94.7479 298.154H95.7561C95.9521 298.154 96.0502 298.028 96.0502 297.776V296.663C96.0502 295.753 96.3442 295.032 96.9323 294.499C97.5344 293.967 98.3466 293.701 99.3688 293.701H101.742C102.148 293.701 102.351 293.883 102.351 294.247L102.372 296.012C102.372 296.124 102.337 296.222 102.267 296.306C102.211 296.39 102.12 296.432 101.994 296.432H101.091C100.853 296.432 100.636 296.537 100.44 296.747C100.244 296.957 100.146 297.209 100.146 297.503V297.881C100.146 298.063 100.237 298.154 100.419 298.154H101.742ZM109.324 300.99C109.142 300.99 109.051 301.081 109.051 301.263V305.296C109.051 305.66 109.163 305.94 109.387 306.136C109.625 306.318 110.003 306.409 110.521 306.409H111.425C111.537 306.409 111.628 306.451 111.698 306.535C111.768 306.619 111.803 306.717 111.803 306.829L111.782 308.509C111.782 308.845 111.579 309.055 111.172 309.139C110.864 309.181 110.549 309.216 110.227 309.244C109.919 309.258 109.604 309.272 109.282 309.286C108.974 309.286 108.659 309.286 108.337 309.286C107.329 309.286 106.496 309.048 105.837 308.572C105.179 308.082 104.85 307.389 104.85 306.493V301.368C104.85 301.116 104.745 300.99 104.535 300.99H103.527C103.191 300.99 103.023 300.836 103.023 300.528V298.553C103.023 298.287 103.177 298.154 103.485 298.154H104.724C104.878 298.154 104.962 298.07 104.976 297.902L105.312 294.794C105.34 294.513 105.466 294.373 105.69 294.373H108.778C109.044 294.373 109.177 294.527 109.177 294.836V297.902C109.177 298.056 109.254 298.133 109.408 298.133H111.341C111.649 298.133 111.803 298.266 111.803 298.532V300.528C111.803 300.836 111.628 300.99 111.278 300.99H109.324ZM120.181 301.347C119.971 301.109 119.698 300.892 119.362 300.696C119.026 300.486 118.599 300.381 118.081 300.381C117.717 300.381 117.402 300.444 117.136 300.57C116.87 300.696 116.737 300.878 116.737 301.116C116.737 301.214 116.779 301.312 116.863 301.41C116.961 301.508 117.199 301.592 117.577 301.662L119.803 302.124C121.106 302.39 122.016 302.852 122.534 303.51C123.066 304.168 123.332 304.904 123.332 305.716C123.332 306.528 123.108 307.214 122.66 307.774C122.212 308.334 121.589 308.761 120.791 309.055C119.992 309.349 119.068 309.496 118.018 309.496C116.674 309.496 115.554 309.272 114.657 308.824C113.761 308.376 113.138 307.837 112.788 307.207C112.718 307.081 112.683 306.962 112.683 306.85C112.683 306.738 112.732 306.654 112.83 306.598L114.657 305.674C114.839 305.59 114.972 305.555 115.056 305.569C115.154 305.583 115.238 305.632 115.308 305.716C115.477 305.898 115.659 306.087 115.855 306.283C116.065 306.465 116.338 306.619 116.674 306.745C117.024 306.871 117.479 306.927 118.039 306.913C118.333 306.899 118.599 306.871 118.837 306.829C119.075 306.773 119.264 306.689 119.404 306.577C119.544 306.465 119.614 306.325 119.614 306.157C119.614 306.017 119.551 305.891 119.425 305.779C119.313 305.667 119.054 305.576 118.648 305.506L116.506 305.128C115.442 304.932 114.608 304.567 114.006 304.035C113.404 303.489 113.096 302.74 113.082 301.788C113.082 301.06 113.271 300.409 113.649 299.835C114.041 299.246 114.615 298.784 115.372 298.448C116.128 298.112 117.045 297.944 118.123 297.944C119.271 297.944 120.244 298.154 121.043 298.574C121.855 298.98 122.415 299.442 122.723 299.961C122.793 300.059 122.849 300.171 122.891 300.297C122.933 300.423 122.877 300.521 122.723 300.591L120.791 301.515C120.665 301.571 120.553 301.585 120.455 301.557C120.356 301.515 120.265 301.445 120.181 301.347ZM128.772 308.677C128.772 309.083 128.541 309.286 128.079 309.286H124.929C124.551 309.286 124.362 309.111 124.362 308.761V305.611C124.362 305.303 124.495 305.149 124.761 305.149H128.394C128.646 305.149 128.772 305.289 128.772 305.569V308.677ZM127.953 303.111C127.939 303.321 127.876 303.475 127.764 303.573C127.666 303.657 127.498 303.699 127.26 303.699H125.811C125.601 303.699 125.461 303.657 125.391 303.573C125.335 303.489 125.293 303.356 125.265 303.174L124.215 294.184C124.201 294.03 124.229 293.911 124.299 293.827C124.383 293.743 124.488 293.701 124.614 293.701H128.583C128.863 293.701 128.99 293.848 128.962 294.142L127.953 303.111Z" fill="#1E1E1E"/>
</svg>
