<?xml version="1.0" encoding="UTF-8"?>
<svg id="Layer_2" data-name="Layer 2" xmlns="http://www.w3.org/2000/svg" viewBox="0 0 1508.98 868.17">
  <g id="Layer_2-2" data-name="Layer 2">
    <g>
      <g>
        <path d="M291.18,188.05c8.71,24.2-7.53,47.49-29.87,56.32-27.88,11.35-55.3,23.54-82.39,36.64-22.66-46.25-45.32-92.51-67.98-138.76,29.5-14.28,59.36-27.61,89.69-40.02,21.67-8.85,51.11-4.28,60.25,19.85,4.92,12.99,.24,28.49-8.93,38.43,17.02-.12,33.52,11.65,39.24,27.54Zm-127.24-26.24c2.96,6.53,4.44,9.79,7.41,16.31,13.98-6.27,28.03-12.35,42.17-18.26,10.54-4.35,15.83-9.54,13.6-15.16-2.23-5.62-9.51-5.91-20.43-1.4-14.33,5.99-28.57,12.16-42.75,18.51Zm88.6,31.12c-2.61-6.67-10.81-7.36-22.68-2.5-14.88,6.07-29.62,12.47-44.25,19.09,3.56,7.83,5.33,11.75,8.89,19.58,14.39-6.51,28.88-12.81,43.51-18.77,11.67-4.78,17.15-10.72,14.54-17.39Z"/>
        <path d="M418.64,170.59c-24.29,6.08-48.35,12.76-72.3,20.07-.63,9.48-.92,14.22-1.43,23.69-12.75,4.06-25.44,8.33-38.05,12.8,1.47-55.6,5.25-110.97,11.26-166.27,18.19-5.39,36.43-10.48,54.78-15.28,33.69,44.21,65.45,89.66,95.33,136.52-12.11,2.49-24.17,5.17-36.2,8.03-5.3-7.85-7.98-11.77-13.4-19.57Zm-25.46-35.15c-10.32-13.94-20.79-27.74-31.41-41.45-2.45,.67-3.67,1.01-6.11,1.7-2.05,17.22-3.9,34.45-5.58,51.72,14.32-4.17,28.68-8.16,43.1-11.97Z"/>
        <path d="M451.66,27.87c14.18-2.7,28.37-5.22,42.61-7.59,27.7,24.25,54.41,49.42,80.21,75.68,1.75-.19,2.62-.28,4.36-.47-2.99-28.43-5.98-56.87-8.97-85.3,13.02-1.37,26.05-2.55,39.1-3.55,3.92,51.36,7.83,102.72,11.75,154.07-12.73,.97-25.44,2.14-38.13,3.51-24.58-26.4-50.08-51.75-76.6-76.21-1.76,.28-2.64,.43-4.4,.72,4.65,28.21,9.3,56.42,13.95,84.63-11.49,1.95-22.93,4.01-34.38,6.18-9.84-50.56-19.67-101.12-29.51-151.68Z"/>
        <path d="M636.15,110.5c12.45-.76,24.91-1.33,37.37-1.72,4.02,12.88,25.66,13.1,35.52,13.05,8.17-.04,30.87-2.56,30.82-10.25-.06-9.36-33.22-12.83-44.2-14.05-25.85-2.88-57.5-15.83-60.07-45.55C632.45,15.68,677.44-.57,705.53,.02c28.66,.6,73.57,13.63,71.75,51.25-13.03-.63-26.07-1.07-39.12-1.32-4.02-12.22-24.04-11.95-33.69-11.86-7.63,.07-30.65,3.53-29.83,10.16,.98,7.92,31.69,11.34,42.91,12.66,25.45,2.99,62.08,16.81,59.77,48.65-2.44,33.74-39.9,50.43-69.77,50.33-28.62-.09-70.29-14.61-71.41-49.4Z"/>
        <path d="M840.63,86.25c4.99-50.64,56.71-74.63,102.76-66.79,46.02,7.84,87.17,47.61,75.09,97.1-11.02,45.17-58.34,67.95-101.94,60.53-43.63-7.43-80.46-44.61-75.9-90.83Zm140.34,21.77c5.25-26.21-21.74-43.65-44.51-47.94-22.99-4.33-54,4.8-57.79,30.51-3.69,25.05,22.77,42.12,44.77,45.87,22,3.75,52.51-3.44,57.52-28.44Z"/>
        <path d="M1084.43,95.94c-2.03,6.97-3.04,10.45-5.07,17.42,23.66,7.01,47.1,14.56,70.4,22.68-4.48,12.67-8.96,25.34-13.44,38-22.59-7.87-45.3-15.19-68.24-21.98-5.2,17.85-10.39,35.69-15.59,53.54-11.23-3.27-22.51-6.38-33.84-9.32,12.96-49.85,25.93-99.7,38.89-149.55,40.84,10.83,81.06,23.31,120.87,37.48-4.57,12.64-9.14,25.27-13.7,37.91-26.54-9.46-53.27-18.18-80.29-26.18Z"/>
        <path d="M1219.71,143.39c-2.77,6.71-4.15,10.06-6.92,16.77,23,9.62,45.71,19.75,68.23,30.46-5.82,12.11-11.65,24.22-17.47,36.33-21.82-10.37-43.83-20.2-66.13-29.52-7.09,17.18-14.18,34.36-21.27,51.55-10.91-4.5-21.88-8.85-32.92-13.03,18.25-48.17,36.5-96.33,54.74-144.5,39.83,15.31,78.84,32.22,117.25,50.81-5.91,12.07-11.82,24.13-17.73,36.2-25.62-12.41-51.51-24.08-77.78-35.06Z"/>
      </g>
      <g>
        <path d="M413.02,354.44c0-45.46,44.37-79.95,103.06-79.95s103.06,34.49,103.06,79.95-44.37,79.95-103.06,79.95-103.06-34.49-103.06-79.95Zm162.31,0c0-22.17-25.55-38.74-59.25-38.74s-59.25,16.57-59.25,38.74,25.55,38.74,59.25,38.74,59.25-16.57,59.25-38.74Z"/>
        <path d="M639.36,371.23v-94.05h42.4v93.38c0,12.99,16.85,22.62,39.59,22.62s39.59-9.63,39.59-22.62v-93.38h42.4v94.05c0,36.05-35.38,63.15-82,63.15s-82-27.1-82-63.15Z"/>
        <path d="M908.65,386.91h-33.7v44.79h-42.4v-154.52h89.86c40.72,0,71.61,23.51,71.61,54.86,0,21.95-15.16,40.31-38.47,49.04l41.56,50.61h-51.39l-37.07-44.79Zm-33.7-40.31h46.33c18.25,0,28.92-5.37,28.92-14.56s-10.67-14.56-28.92-14.56h-46.33v29.11Z"/>
      </g>
      <g>
        <path d="M299.01,652.35c0,30.18-29.67,51.12-68.54,51.12H99.87v-187.63h126.17c36.15,0,64.45,20.39,64.45,48.67,0,17.13-11.59,32.63-29.33,39.97,22.5,8.16,37.85,27.19,37.85,47.86Zm-147.65-87.56v21.75h61.72c15.34,0,24.55-3.53,24.55-10.88s-8.87-10.88-24.55-10.88h-61.72Zm94.45,76.68c0-8.7-10.23-13.05-27.96-13.05h-66.49v26.1h66.49c17.73,0,27.96-4.35,27.96-13.05Z"/>
        <path d="M312.31,609.66c0-55.2,53.88-97.08,125.14-97.08s125.14,41.88,125.14,97.08-53.88,97.08-125.14,97.08-125.14-41.88-125.14-97.08Zm197.09,0c0-26.92-31.03-47.04-71.95-47.04s-71.95,20.12-71.95,47.04,31.03,47.04,71.95,47.04,71.95-20.12,71.95-47.04Z"/>
        <path d="M805.37,609.66c0,53.57-51.83,93.81-121.05,93.81h-93.77v-187.63h93.77c69.22,0,121.05,40.25,121.05,93.81Zm-53.19,0c0-25.56-29.67-44.87-69.22-44.87h-40.92v89.74h40.92c39.55,0,69.22-19.31,69.22-44.87Z"/>
        <path d="M833.33,515.84h51.49v187.63h-51.49v-187.63Z"/>
        <path d="M1098.28,654.53v48.95h-174.59v-187.63h172.88v48.95h-121.39v20.67h110.48v47.31h-110.48v21.75h123.1Z"/>
        <path d="M1117.37,643.92h53.19c0,9.25,21.14,16.59,50.47,16.59,24.55,0,43.99-5.17,43.99-12.78,0-9.79-30.69-13.32-62.74-16.86-39.55-4.35-80.81-21.75-80.81-57.92s41.6-60.37,95.48-60.37,97.18,26.38,97.18,60.37h-53.19c0-8.16-18.75-14.14-45.69-14.14-23.53,0-40.58,4.62-40.58,11.69,0,9.52,38.87,14.14,58.31,16.04,42.96,4.35,85.25,19.85,85.25,57.1s-43.65,63.09-99.57,63.09-101.27-26.92-101.27-62.81Z"/>
        <path d="M1333.89,676.01c0-17.4,18.41-30.73,43.31-30.73s43.31,13.32,43.31,30.73-18.41,30.73-43.31,30.73-43.31-13.32-43.31-30.73Zm17.73-113.94v-46.23h51.49v46.23l-9.21,70.7h-33.08l-9.21-70.7Z"/>
      </g>
      <g>
        <path d="M0,831.77c0-12.1,11.88-21.26,27.66-21.26,14.28,0,25.47,7.57,27.36,18.08h-15.18c-2-2.55-6.69-4.22-12.18-4.22-7.59,0-13.18,3.19-13.18,7.41s5.59,7.41,13.18,7.41c5.49,0,10.19-1.67,12.18-4.22h15.18c-1.9,10.51-13.08,18.08-27.36,18.08-15.78,0-27.66-9.16-27.66-21.26Z"/>
        <path d="M93.47,810.83v17.12c-11.78,0-17.68,2.79-17.68,8.36v15.77h-13.98v-40.61h13.98v9.64c4.09-6.37,10.29-10.27,17.68-10.27Z"/>
        <path d="M152.39,811.47v40.61h-13.98v-6.93c-3.6,4.86-9.49,7.88-16.78,7.88-13.78,0-24.07-9.16-24.07-21.26s10.29-21.26,24.07-21.26c7.29,0,13.18,3.03,16.78,7.88v-6.93h13.98Zm-13.98,20.31c0-4.22-5.59-7.41-13.18-7.41s-13.18,3.19-13.18,7.41,5.59,7.41,13.18,7.41,13.18-3.19,13.18-7.41Z"/>
        <path d="M183.14,810.99v.48h12.88v13.54h-12.88v27.08h-13.98v-27.08h-9.79v-13.54h9.79v-4.06c0-9.08,6.09-13.62,18.08-13.62h8.79v13.54h-7.29c-3.89,0-5.59,1.12-5.59,3.66Z"/>
        <path d="M224.09,825v10.03c0,2.31,1.8,3.34,5.79,3.34h7.09v13.7h-8.79c-11.98,0-18.08-4.54-18.08-13.62v-13.46h-9.29v-13.54h9.29v-8.76l13.98-3.19v11.95h13.88v13.54h-13.88Z"/>
        <path d="M286.9,810.99v.48h12.88v13.54h-12.88v27.08h-13.98v-27.08h-9.79v-13.54h9.79v-4.06c0-9.08,6.09-13.62,18.08-13.62h8.79v13.54h-7.29c-3.89,0-5.59,1.12-5.59,3.66Z"/>
        <path d="M357.9,811.47v40.61h-13.98v-6.93c-3.6,4.86-9.49,7.88-16.78,7.88-13.78,0-24.07-9.16-24.07-21.26s10.29-21.26,24.07-21.26c7.29,0,13.18,3.03,16.78,7.88v-6.93h13.98Zm-13.98,20.31c0-4.22-5.59-7.41-13.18-7.41s-13.18,3.19-13.18,7.41,5.59,7.41,13.18,7.41,13.18-3.19,13.18-7.41Z"/>
        <path d="M363.99,800.08c0-4.3,4.69-7.57,10.89-7.57s10.89,3.27,10.89,7.57-4.69,7.57-10.89,7.57-10.89-3.27-10.89-7.57Zm3.89,11.39h13.98v40.61h-13.98v-40.61Z"/>
        <path d="M423.51,810.83v17.12c-11.78,0-17.68,2.79-17.68,8.36v15.77h-13.98v-40.61h13.98v9.64c4.09-6.37,10.29-10.27,17.68-10.27Z"/>
        <path d="M470.94,810.99v.48h12.88v13.54h-12.88v27.08h-13.98v-27.08h-9.79v-13.54h9.79v-4.06c0-9.08,6.09-13.62,18.08-13.62h8.79v13.54h-7.29c-3.89,0-5.59,1.12-5.59,3.66Z"/>
        <path d="M486.82,831.77c0-12.1,11.88-21.26,27.66-21.26s27.66,9.16,27.66,21.26-11.88,21.26-27.66,21.26-27.66-9.16-27.66-21.26Zm40.85,0c0-4.22-5.59-7.41-13.18-7.41s-13.18,3.19-13.18,7.41,5.59,7.41,13.18,7.41,13.18-3.19,13.18-7.41Z"/>
        <path d="M580.89,810.83v17.12c-11.78,0-17.68,2.79-17.68,8.36v15.77h-13.98v-40.61h13.98v9.64c4.09-6.37,10.29-10.27,17.68-10.27Z"/>
        <path d="M639.21,810.83v17.12c-11.78,0-17.68,2.79-17.68,8.36v15.77h-13.98v-40.61h13.98v9.64c4.09-6.37,10.29-10.27,17.68-10.27Z"/>
        <path d="M697.93,835.44h-40.45c2,3.42,6.89,5.5,13.68,5.5,5.29,0,9.99-1.19,11.58-2.39h14.88c-3.6,8.6-13.98,14.49-26.96,14.49-15.78,0-27.66-9.16-27.66-21.26s11.88-21.26,27.66-21.26,27.66,9.08,27.66,21.58c0,1.04-.1,2.39-.4,3.34Zm-40.45-7.41h26.57c-2-3.42-7.19-5.42-13.38-5.42s-11.08,2.07-13.18,5.42Z"/>
        <path d="M760.14,831.77c0,12.1-10.29,21.26-24.07,21.26-7.29,0-13.18-3.03-16.78-7.88v22.06h-13.98v-55.75h13.98v6.93c3.6-4.86,9.49-7.88,16.78-7.88,13.78,0,24.07,9.16,24.07,21.26Zm-14.48,0c0-4.22-5.59-7.41-13.18-7.41s-13.18,3.19-13.18,7.41,5.59,7.41,13.18,7.41,13.18-3.19,13.18-7.41Z"/>
        <path d="M799.18,810.83v17.12c-11.78,0-17.68,2.79-17.68,8.36v15.77h-13.98v-40.61h13.98v9.64c4.09-6.37,10.29-10.27,17.68-10.27Z"/>
        <path d="M802.97,831.77c0-12.1,11.88-21.26,27.66-21.26s27.66,9.16,27.66,21.26-11.88,21.26-27.66,21.26-27.66-9.16-27.66-21.26Zm40.85,0c0-4.22-5.59-7.41-13.18-7.41s-13.18,3.19-13.18,7.41,5.59,7.41,13.18,7.41,13.18-3.19,13.18-7.41Z"/>
        <path d="M917.62,794.74v57.34h-13.98v-6.93c-3.6,4.86-9.49,7.88-16.78,7.88-13.78,0-24.07-9.16-24.07-21.26s10.29-21.26,24.07-21.26c7.29,0,13.18,3.03,16.78,7.88v-23.65h13.98Zm-13.98,37.03c0-4.22-5.59-7.41-13.18-7.41s-13.18,3.19-13.18,7.41,5.59,7.41,13.18,7.41,13.18-3.19,13.18-7.41Z"/>
        <path d="M975.33,811.47v40.61h-13.98v-7.96c-3.89,5.89-9.69,8.92-16.88,8.92-10.69,0-17.88-5.89-17.88-14.81v-26.76h13.98v22.38c0,3.19,3.99,5.34,9.99,5.34,6.39,0,10.79-2.23,10.79-5.5v-22.22h13.98Z"/>
        <path d="M982.42,831.77c0-12.1,11.88-21.26,27.66-21.26,14.28,0,25.47,7.57,27.36,18.08h-15.18c-2-2.55-6.69-4.22-12.18-4.22-7.59,0-13.18,3.19-13.18,7.41s5.59,7.41,13.18,7.41c5.49,0,10.19-1.67,12.18-4.22h15.18c-1.9,10.51-13.08,18.08-27.36,18.08-15.78,0-27.66-9.16-27.66-21.26Z"/>
        <path d="M1063.31,825v10.03c0,2.31,1.8,3.34,5.79,3.34h7.09v13.7h-8.79c-11.98,0-18.08-4.54-18.08-13.62v-13.46h-9.29v-13.54h9.29v-8.76l13.98-3.19v11.95h13.88v13.54h-13.88Z"/>
        <path d="M1080.98,800.08c0-4.3,4.69-7.57,10.89-7.57s10.89,3.27,10.89,7.57-4.69,7.57-10.89,7.57-10.89-3.27-10.89-7.57Zm3.89,11.39h13.98v40.61h-13.98v-40.61Z"/>
        <path d="M1103.35,811.47h14.68l11.29,25.09h1.5l11.29-25.09h16.18l-18.08,40.61h-18.78l-18.08-40.61Z"/>
        <path d="M1212.3,835.44h-40.45c2,3.42,6.89,5.5,13.68,5.5,5.29,0,9.99-1.19,11.58-2.39h14.88c-3.6,8.6-13.98,14.49-26.96,14.49-15.78,0-27.66-9.16-27.66-21.26s11.88-21.26,27.66-21.26,27.66,9.08,27.66,21.58c0,1.04-.1,2.39-.4,3.34Zm-40.45-7.41h26.57c-2-3.42-7.19-5.42-13.38-5.42s-11.08,2.07-13.18,5.42Z"/>
        <path d="M1271.82,810.83v17.12c-11.78,0-17.68,2.79-17.68,8.36v15.77h-13.98v-40.61h13.98v9.64c4.09-6.37,10.29-10.27,17.68-10.27Z"/>
        <path d="M1274.61,800.08c0-4.3,4.69-7.57,10.89-7.57s10.89,3.27,10.89,7.57-4.69,7.57-10.89,7.57-10.89-3.27-10.89-7.57Zm3.89,11.39h13.98v40.61h-13.98v-40.61Z"/>
        <path d="M1354.6,811.47v36.23c0,12.34-10.49,20.47-26.37,20.47-13.48,0-23.07-6.05-25.97-15.77h14.48c2,1.67,6.59,2.71,11.49,2.71,7.49,0,12.38-2.95,12.38-7.49v-3.9c-3.6,4.7-9.49,7.57-16.78,7.57-13.78,0-24.07-8.76-24.07-20.39s10.29-20.39,24.07-20.39c7.29,0,13.18,2.87,16.78,7.57v-6.61h13.98Zm-13.98,19.43c0-4.22-5.59-7.41-13.18-7.41s-13.18,3.19-13.18,7.41,5.59,7.41,13.18,7.41,13.18-3.19,13.18-7.41Z"/>
        <path d="M1414.92,825.4v26.68h-13.98v-21.82c0-3.58-4.29-5.89-10.88-5.89-6.99,0-11.69,2.39-11.69,6.05v21.66h-13.98v-57.34h13.98v25.09c4.09-6.13,10.19-9.32,17.78-9.32,11.29,0,18.78,5.89,18.78,14.89Z"/>
        <path d="M1442.38,825v10.03c0,2.31,1.8,3.34,5.79,3.34h7.09v13.7h-8.79c-11.98,0-18.08-4.54-18.08-13.62v-13.46h-9.29v-13.54h9.29v-8.76l13.98-3.19v11.95h13.88v13.54h-13.88Z"/>
        <path d="M1461.15,837.75h13.68c0,2.15,4.49,3.74,10.49,3.74s9.99-1.04,9.99-2.55c0-1.67-5.99-2.23-13.88-2.87-9.49-.8-19.47-3.98-19.47-12.18,0-8.92,10.89-13.38,22.97-13.38,13.28,0,23.27,6.61,23.27,14.65h-13.78c0-1.75-4.29-3.11-9.59-3.11s-9.19,.88-9.19,2.31c0,1.51,5.39,2.23,14.18,2.95,8.49,.72,19.17,3.27,19.17,11.79,0,9.08-10.99,13.94-23.87,13.94-13.78,0-23.97-6.93-23.97-15.29Z"/>
      </g>
    </g>
  </g>
</svg>