<svg width="713" height="585" viewBox="0 0 713 585" fill="none" xmlns="http://www.w3.org/2000/svg">
<path d="M618.486 0L634.093 29.235L662.409 10.146L661.732 42.8297L696.27 38.2598L679.463 66.9046L712.311 77.9007L683.225 95.9446L706.858 119.988L672.157 123.297L681.161 154.879L648.793 142.695L641.105 174.581L618.486 149.696L595.868 174.581L588.18 142.695L555.812 154.879L564.816 123.297L530.115 119.988L553.747 95.9446L524.662 77.9007L557.51 66.9046L540.703 38.2598L575.241 42.8297L574.564 10.146L602.88 29.235L618.486 0Z" fill="#F0BBF3"/>
<path d="M618.486 18.5533L630.824 41.6648L653.209 26.5742L652.674 52.4119L679.977 48.7992L666.691 71.4442L692.659 80.137L669.665 94.4014L688.348 113.408L660.915 116.024L668.033 140.991L642.445 131.36L636.367 156.567L618.486 136.894L600.606 156.567L594.528 131.36L568.94 140.991L576.058 116.024L548.625 113.408L567.308 94.4014L544.314 80.137L570.282 71.4442L556.996 48.7992L584.299 52.4119L583.764 26.5742L606.149 41.6648L618.486 18.5533Z" stroke="#1E1E1E" stroke-width="5.50277"/>
<path d="M593.074 80.364C592.71 80.364 592.528 80.1889 592.528 79.8388V69.7149C592.528 69.3928 592.661 69.2318 592.927 69.2318H596.288C596.54 69.2318 596.666 69.3718 596.666 69.6518V70.597C596.666 70.681 596.687 70.7371 596.729 70.7651C596.785 70.7931 596.855 70.7651 596.939 70.681C597.247 70.359 597.576 70.0719 597.926 69.8199C598.276 69.5678 598.654 69.3718 599.06 69.2318C599.466 69.0777 599.88 69.0007 600.3 69.0007C601 69.0007 601.609 69.1757 602.127 69.5258C602.659 69.8619 603.044 70.359 603.282 71.0171C603.31 71.0731 603.345 71.1011 603.387 71.1011C603.429 71.0871 603.478 71.0521 603.534 70.9961C603.8 70.632 604.136 70.303 604.542 70.0089C604.949 69.7149 605.383 69.4768 605.845 69.2948C606.307 69.1127 606.748 69.0217 607.168 69.0217C608.12 69.0217 608.897 69.3298 609.499 69.9459C610.102 70.548 610.403 71.4092 610.403 72.5294V79.7338C610.403 80.1539 610.186 80.364 609.751 80.364H606.685C606.503 80.364 606.377 80.3289 606.307 80.2589C606.237 80.1749 606.202 80.0349 606.202 79.8388V72.9915C606.202 72.6694 606.097 72.4244 605.887 72.2564C605.691 72.0743 605.432 71.9833 605.11 71.9833C604.942 71.9833 604.766 72.0253 604.584 72.1093C604.416 72.1793 604.255 72.2774 604.101 72.4034C603.961 72.5154 603.835 72.6484 603.723 72.8025C603.653 72.9005 603.604 72.9985 603.576 73.0965C603.562 73.1805 603.555 73.2716 603.555 73.3696V79.7338C603.555 80.1539 603.345 80.364 602.925 80.364H599.859C599.69 80.364 599.564 80.3289 599.48 80.2589C599.41 80.1749 599.375 80.0349 599.375 79.8388V72.9915C599.375 72.6694 599.277 72.4244 599.081 72.2564C598.885 72.0743 598.619 71.9833 598.283 71.9833C597.975 71.9833 597.688 72.0673 597.422 72.2353C597.156 72.4034 596.925 72.6694 596.729 73.0335V79.7548C596.729 80.1609 596.498 80.364 596.036 80.364H593.074ZM615.921 75.9111C615.921 76.3312 616.012 76.6812 616.194 76.9613C616.39 77.2413 616.649 77.4514 616.971 77.5914C617.307 77.7314 617.678 77.8014 618.085 77.8014C618.449 77.8014 618.806 77.7174 619.156 77.5494C619.506 77.3814 619.912 77.0733 620.374 76.6252C620.43 76.5692 620.479 76.5412 620.521 76.5412C620.577 76.5272 620.675 76.5482 620.815 76.6042L622.726 77.3814C622.979 77.4794 623.007 77.6474 622.81 77.8855C622.306 78.5856 621.795 79.1317 621.277 79.5238C620.773 79.9159 620.213 80.1889 619.597 80.3429C618.995 80.497 618.302 80.574 617.517 80.574C616.397 80.574 615.389 80.3359 614.493 79.8599C613.597 79.3838 612.89 78.7256 612.371 77.8855C611.853 77.0453 611.594 76.0791 611.594 74.9869C611.594 73.7967 611.86 72.7535 612.392 71.8573C612.939 70.9611 613.653 70.268 614.535 69.7779C615.431 69.2738 616.397 69.0217 617.433 69.0217C618.54 69.0217 619.52 69.2598 620.374 69.7359C621.228 70.212 621.9 70.8981 622.39 71.7943C622.894 72.6764 623.147 73.7546 623.147 75.0289C623.147 75.2109 623.126 75.344 623.084 75.428C623.056 75.498 622.95 75.54 622.768 75.554H616.236C616.138 75.554 616.061 75.582 616.005 75.638C615.949 75.694 615.921 75.785 615.921 75.9111ZM618.715 73.3906C618.855 73.3906 618.946 73.3766 618.988 73.3486C619.044 73.3066 619.072 73.2225 619.072 73.0965C619.072 72.9145 619.023 72.6974 618.925 72.4454C618.827 72.1933 618.673 71.9693 618.463 71.7733C618.253 71.5772 617.973 71.4792 617.622 71.4792C617.342 71.4792 617.069 71.5492 616.803 71.6892C616.551 71.8153 616.348 72.0183 616.194 72.2984C616.054 72.5784 615.984 72.9355 615.984 73.3696L618.715 73.3906ZM628.31 75.9111C628.31 76.3312 628.401 76.6812 628.583 76.9613C628.779 77.2413 629.038 77.4514 629.36 77.5914C629.697 77.7314 630.068 77.8014 630.474 77.8014C630.838 77.8014 631.195 77.7174 631.545 77.5494C631.895 77.3814 632.301 77.0733 632.763 76.6252C632.819 76.5692 632.868 76.5412 632.91 76.5412C632.966 76.5272 633.064 76.5482 633.204 76.6042L635.116 77.3814C635.368 77.4794 635.396 77.6474 635.2 77.8855C634.696 78.5856 634.184 79.1317 633.666 79.5238C633.162 79.9159 632.602 80.1889 631.986 80.3429C631.384 80.497 630.691 80.574 629.907 80.574C628.786 80.574 627.778 80.3359 626.882 79.8599C625.986 79.3838 625.279 78.7256 624.761 77.8855C624.242 77.0453 623.983 76.0791 623.983 74.9869C623.983 73.7967 624.249 72.7535 624.782 71.8573C625.328 70.9611 626.042 70.268 626.924 69.7779C627.82 69.2738 628.786 69.0217 629.823 69.0217C630.929 69.0217 631.909 69.2598 632.763 69.7359C633.617 70.212 634.289 70.8981 634.78 71.7943C635.284 72.6764 635.536 73.7546 635.536 75.0289C635.536 75.2109 635.515 75.344 635.473 75.428C635.445 75.498 635.34 75.54 635.158 75.554H628.625C628.527 75.554 628.45 75.582 628.394 75.638C628.338 75.694 628.31 75.785 628.31 75.9111ZM631.104 73.3906C631.244 73.3906 631.335 73.3766 631.377 73.3486C631.433 73.3066 631.461 73.2225 631.461 73.0965C631.461 72.9145 631.412 72.6974 631.314 72.4454C631.216 72.1933 631.062 71.9693 630.852 71.7733C630.642 71.5772 630.362 71.4792 630.012 71.4792C629.732 71.4792 629.458 71.5492 629.192 71.6892C628.94 71.8153 628.737 72.0183 628.583 72.2984C628.443 72.5784 628.373 72.9355 628.373 73.3696L631.104 73.3906ZM642.283 72.0673C642.101 72.0673 642.01 72.1583 642.01 72.3404V76.3732C642.01 76.7372 642.122 77.0173 642.346 77.2133C642.584 77.3954 642.962 77.4864 643.48 77.4864H644.383C644.495 77.4864 644.586 77.5284 644.656 77.6124C644.726 77.6964 644.761 77.7944 644.761 77.9065L644.74 79.5868C644.74 79.9229 644.537 80.1329 644.131 80.2169C643.823 80.2589 643.508 80.2939 643.186 80.3219C642.878 80.3359 642.563 80.3499 642.241 80.364C641.933 80.364 641.617 80.364 641.295 80.364C640.287 80.364 639.454 80.1259 638.796 79.6498C638.138 79.1597 637.809 78.4666 637.809 77.5704V72.4454C637.809 72.1933 637.704 72.0673 637.494 72.0673H636.485C636.149 72.0673 635.981 71.9133 635.981 71.6052V69.6308C635.981 69.3648 636.135 69.2318 636.443 69.2318H637.683C637.837 69.2318 637.921 69.1477 637.935 68.9797L638.271 65.8711C638.299 65.591 638.425 65.451 638.649 65.451H641.737C642.003 65.451 642.136 65.605 642.136 65.9131V68.9797C642.136 69.1337 642.213 69.2108 642.367 69.2108H644.299C644.607 69.2108 644.761 69.3438 644.761 69.6098V71.6052C644.761 71.9133 644.586 72.0673 644.236 72.0673H642.283ZM586.642 94.2318C586.824 94.2318 586.957 94.2808 587.041 94.3788C587.125 94.4628 587.167 94.5678 587.167 94.6938V96.6682C587.167 96.9343 587.013 97.0673 586.705 97.0673H585.402C585.234 97.0673 585.15 97.1513 585.15 97.3194V104.902C585.15 105.21 585.017 105.364 584.751 105.364H581.327C581.075 105.364 580.949 105.224 580.949 104.944V97.2774C580.949 97.1373 580.893 97.0673 580.781 97.0673H579.605C579.297 97.0673 579.143 96.9343 579.143 96.6682V94.6938C579.143 94.5678 579.178 94.4628 579.248 94.3788C579.332 94.2808 579.465 94.2318 579.647 94.2318H580.655C580.851 94.2318 580.949 94.1057 580.949 93.8537V92.7405C580.949 91.8303 581.243 91.1091 581.832 90.577C582.434 90.0449 583.246 89.7789 584.268 89.7789H586.642C587.048 89.7789 587.251 89.9609 587.251 90.325L587.272 92.0893C587.272 92.2014 587.237 92.2994 587.167 92.3834C587.111 92.4674 587.02 92.5094 586.894 92.5094H585.99C585.752 92.5094 585.535 92.6144 585.339 92.8245C585.143 93.0345 585.045 93.2866 585.045 93.5806V93.9587C585.045 94.1407 585.136 94.2318 585.318 94.2318H586.642ZM588.951 105.364C588.741 105.364 588.594 105.322 588.51 105.238C588.44 105.154 588.405 105.021 588.405 104.839V94.7149C588.405 94.3928 588.538 94.2318 588.804 94.2318H592.081C592.333 94.2318 592.459 94.3718 592.459 94.6518V95.8281C592.459 95.9261 592.501 95.9891 592.585 96.0171C592.669 96.0311 592.746 95.9891 592.816 95.8911C593.04 95.541 593.327 95.226 593.677 94.9459C594.027 94.6658 594.398 94.4418 594.79 94.2738C595.183 94.1057 595.54 94.0217 595.862 94.0217C596.38 94.0217 596.639 94.1617 596.639 94.4418V97.6344C596.639 97.9285 596.499 98.0405 596.219 97.9705C595.897 97.8865 595.561 97.8305 595.211 97.8025C594.874 97.7605 594.608 97.7394 594.412 97.7394C594.188 97.7394 593.964 97.7815 593.74 97.8655C593.53 97.9355 593.334 98.0405 593.152 98.1805C592.984 98.3206 592.851 98.4746 592.753 98.6426C592.655 98.8107 592.606 98.9857 592.606 99.1677V104.755C592.606 105.161 592.375 105.364 591.913 105.364H588.951ZM602.144 104.755C602.144 104.979 602.088 105.14 601.976 105.238C601.864 105.322 601.689 105.364 601.451 105.364H598.489C598.279 105.364 598.132 105.322 598.048 105.238C597.978 105.154 597.943 105.021 597.943 104.839V94.7149C597.943 94.3928 598.076 94.2318 598.342 94.2318H601.766C602.018 94.2318 602.144 94.3718 602.144 94.6518V104.755ZM602.144 92.6985C602.144 93.1045 601.913 93.3076 601.451 93.3076H598.489C598.279 93.3076 598.132 93.2656 598.048 93.1816C597.978 93.0835 597.943 92.9435 597.943 92.7615V90.262C597.943 89.9399 598.076 89.7789 598.342 89.7789H601.766C602.018 89.7789 602.144 89.9259 602.144 90.22V92.6985ZM607.778 100.911C607.778 101.331 607.869 101.681 608.051 101.961C608.247 102.241 608.506 102.451 608.828 102.591C609.164 102.731 609.535 102.801 609.941 102.801C610.305 102.801 610.662 102.717 611.013 102.549C611.363 102.381 611.769 102.073 612.231 101.625C612.287 101.569 612.336 101.541 612.378 101.541C612.434 101.527 612.532 101.548 612.672 101.604L614.583 102.381C614.835 102.479 614.863 102.647 614.667 102.885C614.163 103.586 613.652 104.132 613.134 104.524C612.63 104.916 612.07 105.189 611.454 105.343C610.852 105.497 610.158 105.574 609.374 105.574C608.254 105.574 607.246 105.336 606.35 104.86C605.453 104.384 604.746 103.726 604.228 102.885C603.71 102.045 603.451 101.079 603.451 99.9869C603.451 98.7967 603.717 97.7535 604.249 96.8573C604.795 95.9611 605.509 95.268 606.392 94.7779C607.288 94.2738 608.254 94.0217 609.29 94.0217C610.396 94.0217 611.377 94.2598 612.231 94.7359C613.085 95.212 613.757 95.8981 614.247 96.7943C614.751 97.6764 615.003 98.7546 615.003 100.029C615.003 100.211 614.982 100.344 614.94 100.428C614.912 100.498 614.807 100.54 614.625 100.554H608.093C607.995 100.554 607.918 100.582 607.862 100.638C607.806 100.694 607.778 100.785 607.778 100.911ZM610.571 98.3906C610.711 98.3906 610.803 98.3766 610.845 98.3486C610.901 98.3066 610.929 98.2225 610.929 98.0965C610.929 97.9145 610.88 97.6974 610.781 97.4454C610.683 97.1933 610.529 96.9693 610.319 96.7733C610.109 96.5772 609.829 96.4792 609.479 96.4792C609.199 96.4792 608.926 96.5492 608.66 96.6892C608.408 96.8153 608.205 97.0183 608.051 97.2984C607.911 97.5784 607.841 97.9355 607.841 98.3696L610.571 98.3906ZM616.806 105.364C616.442 105.364 616.26 105.189 616.26 104.839V94.7149C616.26 94.3928 616.393 94.2318 616.659 94.2318H620.041C620.293 94.2318 620.419 94.3718 620.419 94.6518V95.597C620.419 95.681 620.44 95.7371 620.482 95.7651C620.538 95.7931 620.608 95.7651 620.692 95.681C620.986 95.359 621.308 95.0719 621.658 94.8199C622.008 94.5678 622.38 94.3718 622.772 94.2318C623.178 94.0917 623.598 94.0217 624.032 94.0217C625.012 94.0217 625.803 94.3298 626.405 94.9459C627.021 95.562 627.329 96.3882 627.329 97.4244V104.734C627.329 105.154 627.119 105.364 626.699 105.364H623.612C623.43 105.364 623.304 105.329 623.234 105.259C623.164 105.175 623.129 105.035 623.129 104.839V97.9915C623.129 97.6694 623.024 97.4244 622.814 97.2564C622.618 97.0743 622.351 96.9833 622.015 96.9833C621.805 96.9833 621.602 97.0253 621.406 97.1093C621.224 97.1793 621.056 97.2914 620.902 97.4454C620.748 97.5994 620.601 97.7955 620.461 98.0335V104.755C620.461 105.161 620.23 105.364 619.768 105.364H616.806ZM636.54 105.364C636.4 105.364 636.274 105.329 636.162 105.259C636.064 105.189 636.015 105.063 636.015 104.881V104.482C636.015 104.384 635.98 104.328 635.91 104.314C635.84 104.3 635.77 104.328 635.7 104.398C635.434 104.65 635.154 104.867 634.86 105.049C634.58 105.217 634.265 105.343 633.915 105.427C633.579 105.525 633.193 105.574 632.759 105.574C631.933 105.574 631.205 105.364 630.575 104.944C629.945 104.51 629.448 103.866 629.084 103.011C628.734 102.157 628.559 101.1 628.559 99.8399C628.559 98.6636 628.762 97.6414 629.168 96.7733C629.588 95.9051 630.134 95.233 630.806 94.7569C631.478 94.2668 632.199 94.0217 632.969 94.0217C633.446 94.0217 633.887 94.0987 634.293 94.2528C634.713 94.4068 635.14 94.6938 635.574 95.1139C635.686 95.1979 635.777 95.233 635.847 95.219C635.931 95.2049 635.973 95.1139 635.973 94.9459V90.22C635.973 89.9259 636.099 89.7789 636.351 89.7789H639.754C640.02 89.7789 640.153 89.9399 640.153 90.262V104.839C640.153 105.021 640.111 105.154 640.027 105.238C639.957 105.322 639.81 105.364 639.586 105.364H636.54ZM635.952 97.4244C635.728 97.1583 635.504 96.9623 635.28 96.8363C635.07 96.6962 634.804 96.6262 634.482 96.6262C634.16 96.6262 633.866 96.7242 633.6 96.9203C633.347 97.1163 633.151 97.4454 633.011 97.9075C632.871 98.3696 632.801 99.0067 632.801 99.8189C632.801 100.617 632.864 101.254 632.99 101.73C633.13 102.206 633.326 102.549 633.579 102.759C633.831 102.955 634.132 103.053 634.482 103.053C634.762 103.053 635.007 102.997 635.217 102.885C635.441 102.759 635.616 102.591 635.742 102.381C635.882 102.171 635.952 101.933 635.952 101.667V97.4244ZM648.853 97.4244C648.643 97.1863 648.37 96.9693 648.034 96.7733C647.698 96.5632 647.271 96.4582 646.753 96.4582C646.388 96.4582 646.073 96.5212 645.807 96.6472C645.541 96.7733 645.408 96.9553 645.408 97.1933C645.408 97.2914 645.45 97.3894 645.534 97.4874C645.632 97.5854 645.87 97.6694 646.248 97.7394L648.475 98.2015C649.777 98.4676 650.687 98.9297 651.205 99.5878C651.738 100.246 652.004 100.981 652.004 101.793C652.004 102.605 651.78 103.292 651.331 103.852C650.883 104.412 650.26 104.839 649.462 105.133C648.664 105.427 647.74 105.574 646.69 105.574C645.345 105.574 644.225 105.35 643.329 104.902C642.433 104.454 641.81 103.915 641.46 103.285C641.39 103.159 641.354 103.039 641.354 102.927C641.354 102.815 641.404 102.731 641.502 102.675L643.329 101.751C643.511 101.667 643.644 101.632 643.728 101.646C643.826 101.66 643.91 101.709 643.98 101.793C644.148 101.975 644.33 102.164 644.526 102.36C644.736 102.542 645.009 102.696 645.345 102.822C645.695 102.948 646.15 103.004 646.711 102.99C647.005 102.976 647.271 102.948 647.509 102.906C647.747 102.85 647.936 102.766 648.076 102.654C648.216 102.542 648.286 102.402 648.286 102.234C648.286 102.094 648.223 101.968 648.097 101.856C647.985 101.744 647.726 101.653 647.32 101.583L645.177 101.205C644.113 101.009 643.28 100.645 642.678 100.113C642.076 99.5668 641.768 98.8177 641.754 97.8655C641.754 97.1373 641.943 96.4862 642.321 95.9121C642.713 95.324 643.287 94.8619 644.043 94.5258C644.799 94.1897 645.716 94.0217 646.795 94.0217C647.943 94.0217 648.916 94.2318 649.714 94.6518C650.526 95.0579 651.086 95.52 651.394 96.0381C651.464 96.1361 651.521 96.2482 651.563 96.3742C651.605 96.5002 651.549 96.5982 651.394 96.6682L649.462 97.5924C649.336 97.6484 649.224 97.6624 649.126 97.6344C649.028 97.5924 648.937 97.5224 648.853 97.4244ZM657.444 104.755C657.444 105.161 657.213 105.364 656.751 105.364H653.6C653.222 105.364 653.033 105.189 653.033 104.839V101.688C653.033 101.38 653.166 101.226 653.432 101.226H657.066C657.318 101.226 657.444 101.366 657.444 101.646V104.755ZM656.625 99.1887C656.611 99.3988 656.548 99.5528 656.436 99.6508C656.338 99.7348 656.17 99.7769 655.932 99.7769H654.482C654.272 99.7769 654.132 99.7348 654.062 99.6508C654.006 99.5668 653.964 99.4338 653.936 99.2517L652.886 90.262C652.872 90.1079 652.9 89.9889 652.97 89.9049C653.054 89.8209 653.159 89.7789 653.285 89.7789H657.255C657.535 89.7789 657.661 89.9259 657.633 90.22L656.625 99.1887Z" fill="black"/>
<path d="M618.486 407.845L634.093 437.08L662.409 417.991L661.732 450.675L696.27 446.105L679.463 474.75L712.311 485.746L683.225 503.789L706.858 527.832L672.157 531.142L681.161 562.724L648.793 550.54L641.105 582.426L618.486 557.541L595.868 582.426L588.18 550.54L555.812 562.724L564.816 531.142L530.115 527.832L553.747 503.789L524.662 485.746L557.51 474.75L540.703 446.105L575.241 450.675L574.564 417.991L602.88 437.08L618.486 407.845Z" fill="#ABAEFF"/>
<path d="M618.341 426.704L630.679 449.816L653.064 434.725L652.528 460.563L679.832 456.95L666.546 479.595L692.514 488.288L669.52 502.552L688.203 521.559L660.77 524.175L667.888 549.142L642.3 539.511L636.222 564.718L618.341 545.045L600.46 564.718L594.383 539.511L568.795 549.142L575.913 524.175L548.48 521.559L567.163 502.552L544.169 488.288L570.137 479.595L556.851 456.95L584.154 460.563L583.619 434.725L606.004 449.816L618.341 426.704Z" stroke="#1E1E1E" stroke-width="5.50277"/>
<path d="M583.407 490.224C583.407 490.448 583.351 490.609 583.239 490.707C583.127 490.791 582.952 490.833 582.714 490.833H579.731C579.353 490.833 579.164 490.658 579.164 490.308L579.269 475.731C579.269 475.409 579.402 475.248 579.668 475.248H583.029C583.281 475.248 583.407 475.395 583.407 475.689V490.224ZM589.061 486.38C589.061 486.801 589.152 487.151 589.334 487.431C589.53 487.711 589.789 487.921 590.111 488.061C590.447 488.201 590.818 488.271 591.224 488.271C591.588 488.271 591.945 488.187 592.295 488.019C592.646 487.851 593.052 487.543 593.514 487.095C593.57 487.039 593.619 487.011 593.661 487.011C593.717 486.997 593.815 487.018 593.955 487.074L595.866 487.851C596.118 487.949 596.146 488.117 595.95 488.355C595.446 489.055 594.935 489.601 594.417 489.993C593.913 490.385 593.353 490.658 592.737 490.812C592.134 490.966 591.441 491.043 590.657 491.043C589.537 491.043 588.529 490.805 587.633 490.329C586.736 489.853 586.029 489.195 585.511 488.355C584.993 487.515 584.734 486.549 584.734 485.456C584.734 484.266 585 483.223 585.532 482.327C586.078 481.431 586.792 480.737 587.675 480.247C588.571 479.743 589.537 479.491 590.573 479.491C591.679 479.491 592.66 479.729 593.514 480.205C594.368 480.681 595.04 481.368 595.53 482.264C596.034 483.146 596.286 484.224 596.286 485.498C596.286 485.68 596.265 485.813 596.223 485.897C596.195 485.967 596.09 486.009 595.908 486.023H589.376C589.278 486.023 589.201 486.051 589.145 486.107C589.089 486.163 589.061 486.254 589.061 486.38ZM591.854 483.86C591.994 483.86 592.085 483.846 592.127 483.818C592.183 483.776 592.211 483.692 592.211 483.566C592.211 483.384 592.162 483.167 592.064 482.915C591.966 482.663 591.812 482.439 591.602 482.243C591.392 482.047 591.112 481.949 590.762 481.949C590.482 481.949 590.209 482.019 589.943 482.159C589.691 482.285 589.488 482.488 589.334 482.768C589.194 483.048 589.124 483.405 589.124 483.839L591.854 483.86ZM603.256 489.951C602.878 490.259 602.437 490.518 601.933 490.728C601.443 490.938 600.869 491.043 600.211 491.043C599.161 491.043 598.334 490.749 597.732 490.161C597.144 489.573 596.85 488.845 596.85 487.977C596.85 487.151 597.109 486.43 597.627 485.813C598.159 485.197 598.908 484.721 599.875 484.385C600.841 484.035 601.982 483.86 603.298 483.86H603.445C603.501 483.86 603.564 483.846 603.634 483.818C603.718 483.776 603.76 483.692 603.76 483.566V483.209C603.76 482.817 603.655 482.516 603.445 482.306C603.249 482.096 602.941 481.991 602.521 481.991C602.227 481.991 601.926 482.061 601.618 482.201C601.31 482.327 601.065 482.586 600.883 482.978C600.827 483.09 600.764 483.167 600.694 483.209C600.638 483.237 600.512 483.237 600.316 483.209L597.564 482.663C597.466 482.635 597.389 482.586 597.333 482.516C597.291 482.432 597.319 482.257 597.417 481.991C597.739 481.094 598.355 480.457 599.266 480.079C600.19 479.687 601.338 479.491 602.71 479.491C604.013 479.491 605.028 479.638 605.756 479.932C606.484 480.226 606.995 480.632 607.289 481.15C607.597 481.669 607.751 482.271 607.751 482.957V490.266C607.751 490.476 607.716 490.623 607.646 490.707C607.59 490.791 607.464 490.833 607.268 490.833H604.391C604.209 490.833 604.076 490.763 603.991 490.623C603.921 490.469 603.872 490.294 603.844 490.098L603.823 489.951C603.781 489.671 603.592 489.671 603.256 489.951ZM603.76 486.128C603.76 485.876 603.655 485.75 603.445 485.75H603.361C603.193 485.75 602.969 485.785 602.689 485.855C602.423 485.911 602.157 486.009 601.891 486.149C601.625 486.275 601.394 486.444 601.198 486.654C601.016 486.864 600.925 487.116 600.925 487.41C600.925 487.704 601.03 487.942 601.24 488.124C601.45 488.306 601.744 488.397 602.122 488.397C602.402 488.397 602.633 488.355 602.815 488.271C603.011 488.187 603.165 488.096 603.277 487.998C603.403 487.886 603.515 487.774 603.613 487.662C603.711 487.536 603.76 487.396 603.76 487.242V486.128ZM620.012 479.701C620.18 479.701 620.292 479.764 620.348 479.89C620.418 480.016 620.425 480.156 620.369 480.31L616.273 490.308C616.133 490.658 615.874 490.833 615.496 490.833H613.521C613.143 490.833 612.884 490.658 612.744 490.308L608.669 480.31C608.613 480.156 608.62 480.016 608.69 479.89C608.774 479.764 608.9 479.701 609.068 479.701H612.618C612.744 479.701 612.856 479.743 612.954 479.827C613.052 479.911 613.122 480.009 613.164 480.121L615.013 484.973C615.097 485.239 615.202 485.232 615.328 484.952L617.113 480.121C617.169 480.009 617.239 479.911 617.323 479.827C617.421 479.743 617.533 479.701 617.659 479.701H620.012ZM624.669 486.38C624.669 486.801 624.76 487.151 624.942 487.431C625.139 487.711 625.398 487.921 625.72 488.061C626.056 488.201 626.427 488.271 626.833 488.271C627.197 488.271 627.554 488.187 627.904 488.019C628.254 487.851 628.66 487.543 629.122 487.095C629.178 487.039 629.227 487.011 629.269 487.011C629.325 486.997 629.423 487.018 629.563 487.074L631.475 487.851C631.727 487.949 631.755 488.117 631.559 488.355C631.055 489.055 630.544 489.601 630.025 489.993C629.521 490.385 628.961 490.658 628.345 490.812C627.743 490.966 627.05 491.043 626.266 491.043C625.146 491.043 624.137 490.805 623.241 490.329C622.345 489.853 621.638 489.195 621.12 488.355C620.602 487.515 620.343 486.549 620.343 485.456C620.343 484.266 620.609 483.223 621.141 482.327C621.687 481.431 622.401 480.737 623.283 480.247C624.179 479.743 625.146 479.491 626.182 479.491C627.288 479.491 628.268 479.729 629.122 480.205C629.976 480.681 630.649 481.368 631.139 482.264C631.643 483.146 631.895 484.224 631.895 485.498C631.895 485.68 631.874 485.813 631.832 485.897C631.804 485.967 631.699 486.009 631.517 486.023H624.984C624.886 486.023 624.809 486.051 624.753 486.107C624.697 486.163 624.669 486.254 624.669 486.38ZM627.463 483.86C627.603 483.86 627.694 483.846 627.736 483.818C627.792 483.776 627.82 483.692 627.82 483.566C627.82 483.384 627.771 483.167 627.673 482.915C627.575 482.663 627.421 482.439 627.211 482.243C627.001 482.047 626.721 481.949 626.371 481.949C626.091 481.949 625.818 482.019 625.552 482.159C625.3 482.285 625.096 482.488 624.942 482.768C624.802 483.048 624.732 483.405 624.732 483.839L627.463 483.86ZM642.482 488.103C642.804 488.103 643.098 488.019 643.364 487.851C643.644 487.683 643.875 487.48 644.057 487.242V480.31C644.057 479.904 644.288 479.701 644.75 479.701H647.754C648.118 479.701 648.3 479.883 648.3 480.247L648.216 490.371C648.216 490.679 648.083 490.833 647.817 490.833H644.498C644.246 490.833 644.12 490.693 644.12 490.413V489.489C644.12 489.405 644.092 489.356 644.036 489.342C643.994 489.314 643.938 489.335 643.868 489.405C643.392 489.965 642.867 490.378 642.293 490.644C641.719 490.91 641.081 491.043 640.381 491.043C639.779 491.043 639.24 490.91 638.764 490.644C638.302 490.364 637.931 489.965 637.651 489.447C637.385 488.915 637.252 488.278 637.252 487.536V480.331C637.252 479.911 637.469 479.701 637.903 479.701H640.969C641.292 479.701 641.453 479.883 641.453 480.247V487.074C641.453 487.396 641.544 487.648 641.726 487.83C641.922 488.012 642.174 488.103 642.482 488.103ZM650.518 490.833C650.308 490.833 650.161 490.791 650.077 490.707C650.007 490.623 649.972 490.49 649.972 490.308V480.184C649.972 479.862 650.105 479.701 650.371 479.701H653.647C653.899 479.701 654.025 479.841 654.025 480.121V481.297C654.025 481.396 654.067 481.459 654.151 481.487C654.235 481.501 654.312 481.459 654.382 481.361C654.606 481.01 654.893 480.695 655.244 480.415C655.594 480.135 655.965 479.911 656.357 479.743C656.749 479.575 657.106 479.491 657.428 479.491C657.946 479.491 658.205 479.631 658.205 479.911V483.104C658.205 483.398 658.065 483.51 657.785 483.44C657.463 483.356 657.127 483.3 656.777 483.272C656.441 483.23 656.175 483.209 655.979 483.209C655.755 483.209 655.531 483.251 655.307 483.335C655.097 483.405 654.901 483.51 654.718 483.65C654.55 483.79 654.417 483.944 654.319 484.112C654.221 484.28 654.172 484.455 654.172 484.637V490.224C654.172 490.63 653.941 490.833 653.479 490.833H650.518ZM588.408 515.833C588.044 515.833 587.862 515.658 587.862 515.308V500.731C587.862 500.409 587.995 500.248 588.261 500.248H591.622C591.874 500.248 592 500.395 592 500.689V505.919C592 506.003 592.021 506.059 592.063 506.087C592.119 506.101 592.189 506.073 592.273 506.003C592.679 505.611 593.064 505.31 593.428 505.1C593.806 504.876 594.177 504.722 594.541 504.638C594.906 504.54 595.27 504.491 595.634 504.491C596.67 504.491 597.475 504.792 598.049 505.394C598.623 505.982 598.91 506.837 598.91 507.957V515.203C598.91 515.623 598.7 515.833 598.28 515.833H595.193C595.011 515.833 594.885 515.798 594.814 515.728C594.744 515.644 594.709 515.504 594.709 515.308V508.461C594.709 508.139 594.611 507.894 594.415 507.726C594.219 507.544 593.953 507.453 593.617 507.453C593.407 507.453 593.204 507.495 593.008 507.579C592.826 507.649 592.658 507.761 592.504 507.915C592.35 508.069 592.203 508.265 592.063 508.503V515.224C592.063 515.63 591.832 515.833 591.37 515.833H588.408ZM605.978 516.043C604.829 516.043 603.814 515.798 602.932 515.308C602.064 514.818 601.378 514.146 600.874 513.292C600.383 512.424 600.138 511.437 600.138 510.33C600.138 509.154 600.397 508.132 600.916 507.264C601.434 506.382 602.134 505.702 603.016 505.226C603.898 504.736 604.892 504.491 605.999 504.491C607.175 504.491 608.197 504.743 609.065 505.247C609.947 505.751 610.633 506.445 611.124 507.327C611.614 508.195 611.859 509.196 611.859 510.33C611.859 511.437 611.607 512.424 611.103 513.292C610.612 514.146 609.926 514.818 609.044 515.308C608.162 515.798 607.14 516.043 605.978 516.043ZM605.999 513.355C606.377 513.355 606.685 513.25 606.923 513.04C607.161 512.816 607.336 512.473 607.448 512.011C607.56 511.549 607.616 510.96 607.616 510.246C607.616 509.504 607.56 508.902 607.448 508.44C607.336 507.978 607.161 507.642 606.923 507.432C606.685 507.208 606.377 507.096 605.999 507.096C605.634 507.096 605.326 507.208 605.074 507.432C604.836 507.642 604.661 507.978 604.549 508.44C604.437 508.902 604.381 509.504 604.381 510.246C604.381 510.974 604.437 511.57 604.549 512.032C604.661 512.48 604.836 512.816 605.074 513.04C605.326 513.25 605.634 513.355 605.999 513.355ZM613.699 515.833C613.335 515.833 613.153 515.658 613.153 515.308V505.184C613.153 504.862 613.286 504.701 613.552 504.701H616.912C617.165 504.701 617.291 504.841 617.291 505.121V506.066C617.291 506.15 617.312 506.206 617.354 506.234C617.41 506.262 617.48 506.234 617.564 506.15C617.872 505.828 618.201 505.541 618.551 505.289C618.901 505.037 619.279 504.841 619.685 504.701C620.091 504.547 620.504 504.47 620.924 504.47C621.624 504.47 622.234 504.645 622.752 504.995C623.284 505.331 623.669 505.828 623.907 506.487C623.935 506.543 623.97 506.571 624.012 506.571C624.054 506.557 624.103 506.522 624.159 506.466C624.425 506.101 624.761 505.772 625.167 505.478C625.573 505.184 626.007 504.946 626.469 504.764C626.931 504.582 627.373 504.491 627.793 504.491C628.745 504.491 629.522 504.799 630.124 505.415C630.726 506.017 631.027 506.879 631.027 507.999V515.203C631.027 515.623 630.81 515.833 630.376 515.833H627.31C627.128 515.833 627.001 515.798 626.931 515.728C626.861 515.644 626.826 515.504 626.826 515.308V508.461C626.826 508.139 626.721 507.894 626.511 507.726C626.315 507.544 626.056 507.453 625.734 507.453C625.566 507.453 625.391 507.495 625.209 507.579C625.041 507.649 624.88 507.747 624.726 507.873C624.586 507.985 624.46 508.118 624.348 508.272C624.278 508.37 624.229 508.468 624.201 508.566C624.187 508.65 624.18 508.741 624.18 508.839V515.203C624.18 515.623 623.97 515.833 623.55 515.833H620.483C620.315 515.833 620.189 515.798 620.105 515.728C620.035 515.644 620 515.504 620 515.308V508.461C620 508.139 619.902 507.894 619.706 507.726C619.51 507.544 619.244 507.453 618.908 507.453C618.6 507.453 618.313 507.537 618.047 507.705C617.781 507.873 617.55 508.139 617.354 508.503V515.224C617.354 515.63 617.123 515.833 616.66 515.833H613.699ZM636.546 511.38C636.546 511.801 636.637 512.151 636.819 512.431C637.015 512.711 637.274 512.921 637.596 513.061C637.932 513.201 638.303 513.271 638.709 513.271C639.073 513.271 639.43 513.187 639.78 513.019C640.13 512.851 640.537 512.543 640.999 512.095C641.055 512.039 641.104 512.011 641.146 512.011C641.202 511.997 641.3 512.018 641.44 512.074L643.351 512.851C643.603 512.949 643.631 513.117 643.435 513.355C642.931 514.055 642.42 514.601 641.902 514.993C641.398 515.385 640.838 515.658 640.222 515.812C639.619 515.966 638.926 516.043 638.142 516.043C637.022 516.043 636.014 515.805 635.118 515.329C634.221 514.853 633.514 514.195 632.996 513.355C632.478 512.515 632.219 511.549 632.219 510.456C632.219 509.266 632.485 508.223 633.017 507.327C633.563 506.431 634.277 505.737 635.16 505.247C636.056 504.743 637.022 504.491 638.058 504.491C639.164 504.491 640.144 504.729 640.999 505.205C641.853 505.681 642.525 506.368 643.015 507.264C643.519 508.146 643.771 509.224 643.771 510.498C643.771 510.68 643.75 510.813 643.708 510.897C643.68 510.967 643.575 511.009 643.393 511.023H636.861C636.763 511.023 636.686 511.051 636.63 511.107C636.574 511.163 636.546 511.254 636.546 511.38ZM639.339 508.86C639.479 508.86 639.57 508.846 639.612 508.818C639.668 508.776 639.696 508.692 639.696 508.566C639.696 508.384 639.647 508.167 639.549 507.915C639.451 507.663 639.297 507.439 639.087 507.243C638.877 507.047 638.597 506.949 638.247 506.949C637.967 506.949 637.694 507.019 637.428 507.159C637.176 507.285 636.973 507.488 636.819 507.768C636.679 508.048 636.609 508.405 636.609 508.839L639.339 508.86ZM649.229 515.224C649.229 515.63 648.998 515.833 648.536 515.833H645.385C645.007 515.833 644.818 515.658 644.818 515.308V512.158C644.818 511.85 644.951 511.696 645.217 511.696H648.851C649.103 511.696 649.229 511.836 649.229 512.116V515.224ZM648.41 509.658C648.396 509.868 648.333 510.022 648.221 510.12C648.123 510.204 647.955 510.246 647.717 510.246H646.267C646.057 510.246 645.917 510.204 645.847 510.12C645.791 510.036 645.749 509.903 645.721 509.721L644.671 500.731C644.657 500.577 644.685 500.458 644.755 500.374C644.839 500.29 644.944 500.248 645.07 500.248H649.04C649.32 500.248 649.446 500.395 649.418 500.689L648.41 509.658Z" fill="#1E1E1E"/>
<path d="M618.486 203.922L634.093 233.158L662.409 214.069L661.732 246.752L696.27 242.182L679.463 270.827L712.311 281.823L683.225 299.867L706.858 323.91L672.157 327.219L681.161 358.801L648.793 346.618L641.105 378.504L618.486 353.619L595.868 378.504L588.18 346.618L555.812 358.801L564.816 327.219L530.115 323.91L553.747 299.867L524.662 281.823L557.51 270.827L540.703 242.182L575.241 246.752L574.564 214.069L602.88 233.158L618.486 203.922Z" fill="#EDF53A"/>
<path d="M618.486 222.476L630.824 245.587L653.209 230.497L652.674 256.334L679.977 252.722L666.691 275.367L692.659 284.059L669.665 298.324L688.348 317.331L660.915 319.947L668.033 344.914L642.445 335.282L636.367 360.489L618.486 340.817L600.606 360.489L594.528 335.282L568.94 344.914L576.058 319.947L548.625 317.331L567.308 298.324L544.314 284.059L570.282 275.367L556.996 252.722L584.299 256.334L583.764 230.497L606.149 245.587L618.486 222.476Z" stroke="#1E1E1E" stroke-width="5.50277"/>
<path d="M614.182 284.286C614.042 284.286 613.916 284.251 613.804 284.181C613.706 284.111 613.657 283.985 613.657 283.803V283.404C613.657 283.306 613.622 283.25 613.552 283.236C613.482 283.222 613.412 283.25 613.342 283.32C613.076 283.572 612.796 283.789 612.502 283.971C612.222 284.139 611.907 284.265 611.557 284.349C611.221 284.447 610.836 284.496 610.401 284.496C609.575 284.496 608.847 284.286 608.217 283.866C607.587 283.432 607.09 282.788 606.726 281.934C606.376 281.08 606.201 280.023 606.201 278.762C606.201 277.586 606.404 276.564 606.81 275.696C607.23 274.828 607.776 274.155 608.448 273.679C609.12 273.189 609.841 272.944 610.611 272.944C611.088 272.944 611.529 273.021 611.935 273.175C612.355 273.329 612.782 273.616 613.216 274.036C613.328 274.12 613.419 274.155 613.489 274.141C613.573 274.127 613.615 274.036 613.615 273.868V269.142C613.615 268.848 613.741 268.701 613.993 268.701H617.396C617.662 268.701 617.795 268.862 617.795 269.184V283.761C617.795 283.943 617.753 284.076 617.669 284.16C617.599 284.244 617.452 284.286 617.228 284.286H614.182ZM613.594 276.347C613.37 276.081 613.146 275.885 612.922 275.759C612.712 275.619 612.446 275.549 612.124 275.549C611.802 275.549 611.508 275.647 611.242 275.843C610.99 276.039 610.794 276.368 610.654 276.83C610.513 277.292 610.443 277.929 610.443 278.741C610.443 279.539 610.506 280.177 610.632 280.653C610.773 281.129 610.969 281.472 611.221 281.682C611.473 281.878 611.774 281.976 612.124 281.976C612.404 281.976 612.649 281.92 612.859 281.808C613.083 281.682 613.258 281.514 613.384 281.304C613.524 281.094 613.594 280.856 613.594 280.59V276.347ZM624.941 284.496C623.793 284.496 622.777 284.251 621.895 283.761C621.027 283.271 620.341 282.599 619.837 281.745C619.347 280.877 619.102 279.89 619.102 278.783C619.102 277.607 619.361 276.585 619.879 275.717C620.397 274.835 621.097 274.155 621.979 273.679C622.861 273.189 623.856 272.944 624.962 272.944C626.138 272.944 627.16 273.196 628.028 273.7C628.911 274.204 629.597 274.898 630.087 275.78C630.577 276.648 630.822 277.649 630.822 278.783C630.822 279.89 630.57 280.877 630.066 281.745C629.576 282.599 628.89 283.271 628.007 283.761C627.125 284.251 626.103 284.496 624.941 284.496ZM624.962 281.808C625.34 281.808 625.648 281.703 625.886 281.493C626.124 281.269 626.299 280.926 626.411 280.464C626.523 280.002 626.579 279.413 626.579 278.699C626.579 277.957 626.523 277.355 626.411 276.893C626.299 276.431 626.124 276.095 625.886 275.885C625.648 275.661 625.34 275.549 624.962 275.549C624.598 275.549 624.29 275.661 624.038 275.885C623.8 276.095 623.624 276.431 623.512 276.893C623.4 277.355 623.344 277.957 623.344 278.699C623.344 279.427 623.4 280.023 623.512 280.485C623.624 280.933 623.8 281.269 624.038 281.493C624.29 281.703 624.598 281.808 624.962 281.808ZM590.696 297.944C591.704 297.944 592.558 298.133 593.258 298.511C593.958 298.875 594.511 299.33 594.918 299.877C595.324 300.423 595.583 300.969 595.695 301.515C595.793 301.865 595.667 302.047 595.317 302.061L592.439 302.208C592.243 302.222 592.124 302.124 592.082 301.914C592.054 301.732 592.005 301.543 591.935 301.347C591.865 301.137 591.739 300.962 591.557 300.822C591.389 300.668 591.137 300.591 590.801 300.591C590.465 300.591 590.171 300.696 589.919 300.906C589.667 301.116 589.47 301.452 589.33 301.914C589.19 302.362 589.12 302.964 589.12 303.72C589.12 304.49 589.197 305.114 589.351 305.59C589.505 306.052 589.723 306.388 590.003 306.598C590.297 306.794 590.64 306.892 591.032 306.892C591.606 306.892 592.026 306.738 592.292 306.43C592.572 306.108 592.845 305.709 593.111 305.233C593.139 305.177 593.181 305.142 593.237 305.128C593.293 305.1 593.391 305.1 593.531 305.128L595.506 305.506C595.702 305.548 595.765 305.709 595.695 305.989C595.639 306.255 595.506 306.591 595.296 306.997C595.086 307.389 594.785 307.774 594.392 308.152C594 308.53 593.496 308.852 592.88 309.118C592.278 309.37 591.55 309.496 590.696 309.496C589.575 309.496 588.574 309.258 587.692 308.782C586.824 308.292 586.138 307.62 585.634 306.766C585.13 305.898 584.878 304.897 584.878 303.762C584.878 302.6 585.13 301.585 585.634 300.717C586.152 299.849 586.845 299.169 587.713 298.679C588.595 298.189 589.589 297.944 590.696 297.944ZM597.515 309.286C597.305 309.286 597.158 309.244 597.074 309.16C597.004 309.076 596.969 308.943 596.969 308.761V298.637C596.969 298.315 597.102 298.154 597.368 298.154H600.645C600.897 298.154 601.023 298.294 601.023 298.574V299.75C601.023 299.849 601.065 299.912 601.149 299.94C601.233 299.954 601.31 299.912 601.38 299.814C601.604 299.463 601.891 299.148 602.241 298.868C602.591 298.588 602.962 298.364 603.354 298.196C603.746 298.028 604.103 297.944 604.425 297.944C604.943 297.944 605.203 298.084 605.203 298.364V301.557C605.203 301.851 605.062 301.963 604.782 301.893C604.46 301.809 604.124 301.753 603.774 301.725C603.438 301.683 603.172 301.662 602.976 301.662C602.752 301.662 602.528 301.704 602.304 301.788C602.094 301.858 601.898 301.963 601.716 302.103C601.548 302.243 601.415 302.397 601.317 302.565C601.219 302.733 601.17 302.908 601.17 303.09V308.677C601.17 309.083 600.939 309.286 600.477 309.286H597.515ZM611.81 308.404C611.432 308.712 610.991 308.971 610.487 309.181C609.996 309.391 609.422 309.496 608.764 309.496C607.714 309.496 606.888 309.202 606.286 308.614C605.698 308.026 605.404 307.298 605.404 306.43C605.404 305.604 605.663 304.883 606.181 304.266C606.713 303.65 607.462 303.174 608.428 302.838C609.394 302.488 610.536 302.313 611.852 302.313H611.999C612.055 302.313 612.118 302.299 612.188 302.271C612.272 302.229 612.314 302.145 612.314 302.019V301.662C612.314 301.27 612.209 300.969 611.999 300.759C611.803 300.549 611.495 300.444 611.075 300.444C610.781 300.444 610.48 300.514 610.171 300.654C609.863 300.78 609.618 301.039 609.436 301.431C609.38 301.543 609.317 301.62 609.247 301.662C609.191 301.69 609.065 301.69 608.869 301.662L606.118 301.116C606.02 301.088 605.943 301.039 605.887 300.969C605.845 300.885 605.873 300.71 605.971 300.444C606.293 299.547 606.909 298.91 607.819 298.532C608.743 298.14 609.891 297.944 611.264 297.944C612.566 297.944 613.581 298.091 614.309 298.385C615.037 298.679 615.549 299.085 615.843 299.603C616.151 300.122 616.305 300.724 616.305 301.41V308.719C616.305 308.929 616.27 309.076 616.2 309.16C616.144 309.244 616.018 309.286 615.822 309.286H612.944C612.762 309.286 612.629 309.216 612.545 309.076C612.475 308.922 612.426 308.747 612.398 308.551L612.377 308.404C612.335 308.124 612.146 308.124 611.81 308.404ZM612.314 304.581C612.314 304.329 612.209 304.203 611.999 304.203H611.915C611.747 304.203 611.523 304.238 611.243 304.308C610.977 304.364 610.711 304.462 610.445 304.602C610.178 304.728 609.947 304.897 609.751 305.107C609.569 305.317 609.478 305.569 609.478 305.863C609.478 306.157 609.583 306.395 609.793 306.577C610.003 306.759 610.297 306.85 610.676 306.85C610.956 306.85 611.187 306.808 611.369 306.724C611.565 306.64 611.719 306.549 611.831 306.451C611.957 306.339 612.069 306.227 612.167 306.115C612.265 305.989 612.314 305.849 612.314 305.695V304.581ZM624.742 298.154C624.924 298.154 625.057 298.203 625.141 298.301C625.225 298.385 625.267 298.49 625.267 298.616V300.591C625.267 300.857 625.113 300.99 624.805 300.99H623.503C623.335 300.99 623.251 301.074 623.251 301.242V308.824C623.251 309.132 623.118 309.286 622.852 309.286H619.428C619.176 309.286 619.05 309.146 619.05 308.866V301.2C619.05 301.06 618.994 300.99 618.882 300.99H617.706C617.398 300.99 617.244 300.857 617.244 300.591V298.616C617.244 298.49 617.279 298.385 617.349 298.301C617.433 298.203 617.566 298.154 617.748 298.154H618.756C618.952 298.154 619.05 298.028 619.05 297.776V296.663C619.05 295.753 619.344 295.032 619.932 294.499C620.534 293.967 621.347 293.701 622.369 293.701H624.742C625.148 293.701 625.351 293.883 625.351 294.247L625.372 296.012C625.372 296.124 625.337 296.222 625.267 296.306C625.211 296.39 625.12 296.432 624.994 296.432H624.091C623.853 296.432 623.636 296.537 623.44 296.747C623.244 296.957 623.146 297.209 623.146 297.503V297.881C623.146 298.063 623.237 298.154 623.419 298.154H624.742ZM632.324 300.99C632.142 300.99 632.051 301.081 632.051 301.263V305.296C632.051 305.66 632.163 305.94 632.387 306.136C632.625 306.318 633.003 306.409 633.521 306.409H634.425C634.537 306.409 634.628 306.451 634.698 306.535C634.768 306.619 634.803 306.717 634.803 306.829L634.782 308.509C634.782 308.845 634.579 309.055 634.172 309.139C633.864 309.181 633.549 309.216 633.227 309.244C632.919 309.258 632.604 309.272 632.282 309.286C631.974 309.286 631.659 309.286 631.337 309.286C630.329 309.286 629.496 309.048 628.837 308.572C628.179 308.082 627.85 307.389 627.85 306.493V301.368C627.85 301.116 627.745 300.99 627.535 300.99H626.527C626.191 300.99 626.023 300.836 626.023 300.528V298.553C626.023 298.287 626.177 298.154 626.485 298.154H627.724C627.878 298.154 627.962 298.07 627.976 297.902L628.312 294.794C628.34 294.513 628.466 294.373 628.69 294.373H631.778C632.044 294.373 632.177 294.527 632.177 294.836V297.902C632.177 298.056 632.254 298.133 632.408 298.133H634.341C634.649 298.133 634.803 298.266 634.803 298.532V300.528C634.803 300.836 634.628 300.99 634.278 300.99H632.324ZM643.181 301.347C642.971 301.109 642.698 300.892 642.362 300.696C642.026 300.486 641.599 300.381 641.081 300.381C640.717 300.381 640.402 300.444 640.136 300.57C639.87 300.696 639.737 300.878 639.737 301.116C639.737 301.214 639.779 301.312 639.863 301.41C639.961 301.508 640.199 301.592 640.577 301.662L642.803 302.124C644.106 302.39 645.016 302.852 645.534 303.51C646.066 304.168 646.332 304.904 646.332 305.716C646.332 306.528 646.108 307.214 645.66 307.774C645.212 308.334 644.589 308.761 643.791 309.055C642.992 309.349 642.068 309.496 641.018 309.496C639.674 309.496 638.554 309.272 637.657 308.824C636.761 308.376 636.138 307.837 635.788 307.207C635.718 307.081 635.683 306.962 635.683 306.85C635.683 306.738 635.732 306.654 635.83 306.598L637.657 305.674C637.839 305.59 637.972 305.555 638.056 305.569C638.154 305.583 638.238 305.632 638.308 305.716C638.477 305.898 638.659 306.087 638.855 306.283C639.065 306.465 639.338 306.619 639.674 306.745C640.024 306.871 640.479 306.927 641.039 306.913C641.333 306.899 641.599 306.871 641.837 306.829C642.075 306.773 642.264 306.689 642.404 306.577C642.544 306.465 642.614 306.325 642.614 306.157C642.614 306.017 642.551 305.891 642.425 305.779C642.313 305.667 642.054 305.576 641.648 305.506L639.506 305.128C638.442 304.932 637.608 304.567 637.006 304.035C636.404 303.489 636.096 302.74 636.082 301.788C636.082 301.06 636.271 300.409 636.649 299.835C637.041 299.246 637.615 298.784 638.372 298.448C639.128 298.112 640.045 297.944 641.123 297.944C642.271 297.944 643.244 298.154 644.043 298.574C644.855 298.98 645.415 299.442 645.723 299.961C645.793 300.059 645.849 300.171 645.891 300.297C645.933 300.423 645.877 300.521 645.723 300.591L643.791 301.515C643.665 301.571 643.553 301.585 643.455 301.557C643.356 301.515 643.265 301.445 643.181 301.347ZM651.772 308.677C651.772 309.083 651.541 309.286 651.079 309.286H647.929C647.551 309.286 647.362 309.111 647.362 308.761V305.611C647.362 305.303 647.495 305.149 647.761 305.149H651.394C651.646 305.149 651.772 305.289 651.772 305.569V308.677ZM650.953 303.111C650.939 303.321 650.876 303.475 650.764 303.573C650.666 303.657 650.498 303.699 650.26 303.699H648.811C648.601 303.699 648.461 303.657 648.391 303.573C648.335 303.489 648.293 303.356 648.265 303.174L647.215 294.184C647.201 294.03 647.229 293.911 647.299 293.827C647.383 293.743 647.488 293.701 647.614 293.701H651.583C651.863 293.701 651.99 293.848 651.962 294.142L650.953 303.111Z" fill="#1E1E1E"/>
<ellipse cx="224.988" cy="283.892" rx="224.988" ry="224.914" fill="#EDF53A"/>
<path d="M421.406 283.892C421.406 392.334 333.468 480.245 224.988 480.245C116.508 480.245 28.5698 392.334 28.5698 283.892C28.5698 175.45 116.508 87.5391 224.988 87.5391C333.468 87.5391 421.406 175.45 421.406 283.892Z" stroke="black" stroke-width="5.19481"/>
<path d="M91.8137 275.851C99.7982 275.851 105.151 271.86 108.69 263.062C105.424 266.237 101.341 267.96 97.5298 267.96C97.1669 267.96 96.804 267.96 96.4411 267.96C91.4508 267.597 88.3659 264.15 86.8234 259.797C85.281 255.534 85.5532 252.631 85.5532 252.268C85.5532 245.829 88.2752 238.663 93.2654 238.663C97.6206 238.663 96.0781 246.101 100.978 248.277C102.429 249.003 103.337 248.912 103.518 248.912C105.514 248.912 107.964 247.733 108.146 245.284C108.146 244.921 108.146 244.649 108.146 244.377C108.146 241.203 106.331 238.663 103.427 237.03C100.433 235.398 96.7133 234.854 93.9006 234.854C82.6498 234.854 73.4858 242.473 73.4858 255.171C73.4858 265.239 80.4722 275.851 91.8137 275.851Z" fill="#1E1E1E"/>
<path d="M126.834 275.307C126.561 274.218 126.289 272.586 126.017 270.318C125.563 265.874 125.382 261.701 125.382 259.343C125.382 256.259 125.473 251.633 126.471 246.917C127.469 242.291 129.193 239.026 132.096 239.026C136.179 239.026 137.268 246.917 137.268 254.355C137.268 254.899 137.268 258.073 136.905 263.425C136.451 268.867 135.635 273.493 134.999 275.307H150.515C148.428 268.413 148.609 261.429 148.609 254.445C148.609 244.559 146.159 234.854 134.183 234.854C130.1 234.854 127.015 238.028 124.565 241.747C124.565 231.951 124.384 222.699 125.926 213.266C121.843 214.808 115.22 217.529 108.415 219.706C101.701 221.883 95.7124 223.425 91.8109 223.425C91.3572 223.425 90.9036 223.334 90.4499 223.334C86.367 223.062 85.5504 221.43 84.9152 217.711C84.2801 213.811 81.7396 211.724 77.8381 211.724C74.2996 211.724 71.0332 214.083 71.0332 217.801C71.0332 226.055 82.0118 227.597 88.2723 227.597C94.8958 227.597 106.51 224.786 112.316 222.609L112.589 222.427C113.042 227.779 113.314 233.13 113.314 238.572C113.314 241.293 113.224 244.105 113.133 246.826C112.77 255.987 112.135 265.511 111.137 275.307H126.834Z" fill="#1E1E1E"/>
<path d="M153.558 221.52C156.824 224.06 159.728 226.69 162.359 230.046C165.171 226.69 167.893 224.151 171.16 221.52C167.803 219.071 164.899 216.169 162.359 212.903C159.546 216.259 156.824 218.89 153.558 221.52ZM169.617 275.307C169.073 272.495 168.619 269.502 168.347 266.237C167.712 259.797 167.803 255.896 167.803 255.262C167.803 248.912 168.438 241.838 169.617 234.854H154.919C156.189 241.928 156.915 248.731 156.915 255.171C156.915 255.624 156.824 257.62 156.824 261.248C156.733 264.876 156.098 269.593 154.919 275.307H169.617Z" fill="#1E1E1E"/>
<path d="M191.963 275.851C199.947 275.851 205.301 271.86 208.839 263.062C205.573 266.237 201.49 267.96 197.679 267.96C197.316 267.96 196.953 267.96 196.59 267.96C191.6 267.597 188.515 264.15 186.973 259.797C185.43 255.534 185.702 252.631 185.702 252.268C185.702 245.829 188.424 238.663 193.415 238.663C197.679 238.663 201.581 243.38 203.032 247.915L206.389 237.665C201.944 235.579 199.04 234.854 194.05 234.854C182.799 234.854 173.635 242.473 173.635 255.171C173.635 265.239 180.621 275.851 191.963 275.851Z" fill="#1E1E1E"/>
<path d="M210.651 261.611C210.651 271.951 217.728 275.579 223.535 275.579C224.533 275.579 227.709 275.851 232.699 272.949L232.245 275.307H245.855C244.676 269.139 244.222 262.427 244.222 255.08C244.222 244.921 237.598 234.854 226.711 234.854C220.632 234.854 217.456 236.758 212.103 239.207L219.815 247.643C220.722 243.107 221.902 238.119 225.713 238.119C229.705 238.119 232.064 245.466 232.336 249.457C230.431 248.368 228.072 248.096 225.894 248.096C217.819 248.096 210.651 252.903 210.651 261.611ZM227.89 251.906C228.434 251.724 228.888 251.724 229.342 251.724C230.521 251.724 232.245 252.178 232.517 253.72C232.699 254.717 232.88 255.715 232.88 256.713C232.88 256.985 232.79 258.255 232.79 260.432C232.79 261.248 232.79 262.064 232.79 262.881L232.699 267.688C232.699 268.504 232.699 269.32 232.699 270.227C231.519 271.044 230.158 271.769 228.707 271.769C225.803 271.769 223.716 269.774 222.628 267.144C221.448 264.513 221.63 262.608 221.63 262.246C221.63 258.255 223.263 253.175 227.89 251.906Z" fill="#1E1E1E"/>
<path d="M266.721 266.237C268.989 266.146 271.257 265.783 273.344 265.057C274.977 264.423 276.429 263.697 277.79 262.79C278.607 263.788 279.151 264.785 279.242 265.692C279.242 265.964 279.332 266.146 279.332 266.418C279.332 268.958 276.429 270.5 273.435 270.5C272.981 270.5 272.528 270.5 271.983 270.409C270.078 270.137 267.9 269.683 265.45 269.23C260.642 268.232 258.283 268.413 257.92 268.413C253.746 268.413 249.935 269.502 248.211 273.946C247.485 275.851 247.213 277.665 247.213 279.207C247.213 281.928 248.302 285.647 253.02 288.549C257.647 291.452 264.271 292.54 269.443 292.54C277.246 292.54 278.153 288.549 278.153 287.189C278.153 286.282 277.79 284.558 276.066 283.198C274.251 281.837 271.529 281.656 268.535 283.742C265.995 285.556 264.089 286.463 262.819 286.554C261.549 286.645 260.732 286.735 260.369 286.735C258.645 286.735 257.194 286.373 255.833 285.738C253.202 284.377 252.385 282.2 252.385 280.93C252.385 280.477 252.476 279.933 252.748 279.479C253.292 278.481 254.381 277.937 256.014 277.937C256.105 277.937 257.647 277.846 262.184 278.572C266.721 279.298 270.622 279.933 272.89 279.933C274.07 279.933 275.159 279.842 276.248 279.661C278.153 279.388 279.786 278.572 281.329 277.393C284.323 274.944 284.867 271.951 284.867 270.046C284.867 268.958 284.686 267.779 284.323 266.599C283.688 264.513 282.417 262.518 280.33 260.432C281.329 259.343 282.145 258.164 282.78 256.894C283.778 254.989 284.232 252.813 284.232 250.364C284.232 245.647 282.417 241.747 279.242 238.935C278.334 238.209 277.336 237.575 276.338 236.94C276.61 236.123 277.064 235.398 277.609 234.763C280.33 231.86 284.686 231.679 289.222 230.953L284.413 224.241C280.33 224.423 276.52 229.593 274.705 233.765C274.433 234.4 274.161 235.126 273.979 235.761C273.888 235.67 273.798 235.67 273.707 235.67C271.711 234.944 269.624 234.581 267.265 234.581C267.084 234.581 266.902 234.581 266.721 234.581C257.647 234.581 249.209 240.749 249.209 250.364C249.209 256.078 252.203 261.157 257.375 263.606C259.916 264.785 263.908 266.237 266.721 266.237ZM263.001 239.661C263.454 239.479 263.817 239.479 264.271 239.479C265.813 239.479 267.9 240.658 269.896 243.561C270.894 245.012 271.711 246.645 272.437 248.459C273.798 252.178 273.707 254.355 273.707 255.08C273.707 257.62 273.072 260.25 270.441 261.248C269.987 261.429 269.533 261.52 269.08 261.52C267.447 261.52 265.36 260.341 263.454 257.438C262.456 255.987 261.73 254.355 261.095 252.45C259.825 248.731 259.825 246.554 259.825 245.828C259.825 243.289 260.46 240.477 263.001 239.661Z" fill="#1E1E1E"/>
<path d="M306.568 234.309C293.593 234.309 287.695 243.924 287.695 255.262C287.695 266.871 293.593 276.032 306.568 276.032C319.724 276.032 325.44 266.962 325.44 255.262C325.44 244.014 319.361 234.309 306.568 234.309ZM310.378 272.858C310.106 272.949 309.834 272.949 309.562 272.949C307.294 272.949 305.297 270.409 303.664 266.69C302.031 262.971 300.942 258.527 300.489 256.441C299.491 252.087 297.041 238.572 302.757 237.393C303.029 237.302 303.301 237.302 303.574 237.302C305.842 237.302 307.838 239.751 309.562 243.38C311.286 247.098 312.284 251.543 312.737 253.72C313.645 257.983 316.457 271.679 310.378 272.858Z" fill="#1E1E1E"/>
<path d="M94.0276 343.106C102.012 343.106 107.365 339.115 110.904 330.317C107.637 333.492 103.555 335.215 99.7437 335.215C99.3808 335.215 99.0179 335.215 98.655 335.215C93.6647 334.852 90.5798 331.405 89.0373 327.052C87.4949 322.789 87.7671 319.886 87.7671 319.523C87.7671 313.083 90.4891 305.918 95.4793 305.918C99.7437 305.918 103.645 310.634 105.097 315.17L108.454 304.92C104.008 302.834 101.105 302.108 96.1145 302.108C84.8637 302.108 75.6997 309.727 75.6997 322.426C75.6997 332.494 82.6861 343.106 94.0276 343.106Z" fill="black"/>
<path d="M143.928 305.646C143.202 304.648 142.113 303.832 140.57 303.106C137.576 301.655 135.126 301.655 134.128 301.655C131.497 301.655 127.959 302.29 125.327 305.192V302.108L113.441 306.553C114.167 312.539 114.53 318.344 114.53 323.877C114.53 324.331 114.802 330.136 113.351 342.562H125.6C125.418 341.564 125.237 339.931 125.055 337.664C124.602 333.219 124.602 329.863 124.602 329.228C124.602 319.614 125.963 305.555 131.951 305.555C135.217 305.555 133.403 309.818 136.578 313.174C138.302 315.079 142.294 314.898 143.655 313.265C144.563 312.086 145.107 310.907 145.107 309.546C145.107 309.365 145.288 307.551 143.928 305.646Z" fill="black"/>
<path d="M146.282 328.866C146.282 339.206 153.359 342.834 159.166 342.834C160.164 342.834 163.34 343.106 168.33 340.203L167.877 342.562H181.486C180.307 336.394 179.853 329.682 179.853 322.335C179.853 312.176 173.23 302.108 162.342 302.108C156.354 302.108 153.087 302.834 148.46 306.462C146.464 308.095 146.101 310.453 146.101 311.451C146.101 312.176 146.101 313.356 147.099 314.444C148.097 315.442 149.367 315.714 150.456 315.714C150.728 315.714 153.269 315.714 154.539 313.628C156.898 309.637 157.715 305.374 161.344 305.374C165.336 305.374 167.695 312.721 167.967 316.712C166.062 315.623 163.703 315.351 161.525 315.351C153.45 315.351 146.282 320.158 146.282 328.866ZM163.521 319.161C164.066 318.979 164.519 318.979 164.973 318.979C166.153 318.979 167.877 319.433 168.149 320.975C168.33 321.972 168.512 322.97 168.512 323.968C168.512 324.24 168.421 325.51 168.421 327.687C168.421 328.503 168.421 329.319 168.421 330.136L168.33 334.943C168.33 335.759 168.33 336.575 168.33 337.482C167.151 338.299 165.79 339.024 164.338 339.024C161.435 339.024 159.348 337.029 158.259 334.399C157.079 331.768 157.261 329.863 157.261 329.501C157.261 325.51 158.894 320.43 163.521 319.161Z" fill="black"/>
<path d="M199.533 302.381C199.805 298.299 200.44 295.124 201.438 293.038C202.346 290.952 203.162 289.954 203.797 289.864C204.432 289.864 204.705 289.864 204.795 289.864C207.154 289.864 209.876 293.582 211.419 301.564L215.139 289.954C208.334 286.78 204.705 287.143 203.434 287.143C201.166 287.143 198.898 287.596 196.72 288.503C192.365 290.317 188.826 295.124 188.01 302.381H183.927V305.555H187.738C187.647 317.619 187.012 330.136 185.288 342.562H202.073C200.349 331.677 199.351 317.8 199.351 305.555H204.251V302.381H199.533Z" fill="black"/>
<path d="M215.375 304.376H219.186C219.367 307.006 219.458 309.637 219.458 312.358C219.458 313.265 219.458 316.984 219.095 323.514C218.641 330.045 218.006 336.485 217.28 342.562H232.251C231.253 330.498 231.072 321.7 231.072 317.709C231.072 313.174 231.253 308.73 231.616 304.376H235.064L234.973 301.564H231.616C231.888 297.936 232.16 295.669 232.614 292.131H218.097C218.823 295.759 219.095 297.936 219.186 301.292H215.375V304.376ZM225.265 359.977C227.533 357.346 229.983 355.169 232.795 353.083C229.983 350.997 227.714 348.82 225.265 346.281C222.815 348.911 220.274 351.178 217.552 353.083C220.365 355.169 222.996 357.437 225.265 359.977Z" fill="black"/>
<path d="M267.613 343.106C275.598 343.106 280.951 339.115 284.489 330.317C281.223 333.492 277.14 335.215 273.329 335.215C272.966 335.215 272.604 335.215 272.241 335.215C267.25 334.852 264.165 331.405 262.623 327.052C261.081 322.789 261.353 319.886 261.353 319.523C261.353 313.083 264.075 305.918 269.065 305.918C273.329 305.918 277.231 310.634 278.683 315.17L282.04 304.92C277.594 302.834 274.69 302.108 269.7 302.108C258.449 302.108 249.285 309.727 249.285 322.426C249.285 332.494 256.272 343.106 267.613 343.106Z" fill="black"/>
<path d="M303.177 342.562C300.002 324.24 300.002 298.752 303.177 280.521L286.936 280.612C290.293 298.48 290.293 324.693 286.936 342.562H303.177Z" fill="black"/>
<path d="M357.404 347.278C352.232 348.004 351.416 353.809 347.333 353.809C340.619 353.809 341.98 340.566 341.617 335.396C341.254 329.682 341.254 324.784 341.254 322.154C341.254 320.249 341.254 317.981 341.345 315.532C341.435 310.453 341.798 304.739 342.252 302.199L329.912 306.553C330.275 308.458 330.547 312.358 330.547 316.077C330.547 316.984 330.547 319.705 330.094 324.693C329.368 332.04 327.281 338.571 322.654 338.571C314.579 338.571 317.663 306.825 318.389 302.199L305.596 306.462C306.231 311.995 306.14 316.712 306.14 323.514C306.14 333.401 308.953 342.562 320.567 342.562C325.194 342.562 329.368 339.296 330.82 334.943C330.82 350.181 336.717 357.074 354.138 357.074C356.95 357.074 358.947 356.53 360.217 355.442C362.667 353.174 362.213 351.723 362.213 351.451C362.213 349.183 360.489 347.188 358.221 347.188C357.949 347.188 357.676 347.188 357.404 347.278Z" fill="black"/>
<path d="M359.895 342.562L359.26 339.75C360.984 342.018 363.978 342.834 366.609 342.834C367.517 342.834 369.876 342.925 373.777 341.111C379.402 338.48 384.574 332.403 384.574 322.517C384.574 315.532 382.487 310.544 379.584 307.188C378.041 305.555 376.408 304.285 374.503 303.469C370.783 301.836 368.696 302.199 368.333 302.199C364.976 302.199 361.528 303.288 359.26 305.737C359.26 297.664 359.26 289.229 360.712 280.158C359.441 280.612 357.808 281.247 355.812 282.063L349.461 284.512C345.015 286.236 340.025 287.959 335.579 289.138C331.133 290.317 328.229 290.589 326.596 290.589C325.78 290.589 325.054 290.499 324.419 290.408C317.614 289.229 318.703 281.065 313.077 281.065C309.539 281.065 307.361 283.877 307.361 286.689C307.361 287.052 307.361 287.505 307.452 287.868C308.178 293.401 316.162 294.127 322.241 294.127C329.953 294.127 337.938 292.04 344.38 290.045C345.106 289.773 345.832 289.501 346.557 289.319C346.92 292.494 347.192 296.031 347.465 299.75C347.737 303.56 347.828 307.369 347.828 311.269C347.828 312.449 347.828 314.535 347.737 317.709C347.646 320.884 347.465 324.875 347.102 329.682C346.648 334.489 346.013 338.843 345.196 342.562H359.895ZM359.26 316.258C359.26 311.542 361.256 306.825 364.795 306.825C367.426 306.825 369.422 310.272 370.511 314.898C371.599 319.614 371.509 322.879 371.509 323.786C371.509 330.045 369.785 338.117 364.795 338.117C362.708 338.117 360.893 337.392 359.26 335.94V316.258Z" fill="black"/>
</svg>
