<?xml version="1.0" encoding="utf-8"?>
<!-- Generator: Adobe Illustrator 26.4.1, SVG Export Plug-In . SVG Version: 6.00 Build 0)  -->
<svg version="1.1" id="Layer_1" xmlns="http://www.w3.org/2000/svg" xmlns:xlink="http://www.w3.org/1999/xlink" x="0px" y="0px"
	 viewBox="0 0 535.5 554" style="enable-background:new 0 0 535.5 554;" xml:space="preserve">
<style type="text/css">
	.st0{fill:#FFFFFF;}
</style>
<title>geneva-flower-vector</title>
<path class="st0" d="M483.1,276.6c-2-1-4.1-1.9-6.4-2.7c29.7-11.7,44.9-46.7,34.1-79.6c-9.9-30.3-39-48.9-69.1-44.3
	c-2.2,0.3-4.5,0.9-6.8,1.6c17.2-26.9,9-64.2-19.1-84.5l0,0c-25.8-18.6-60.2-16.6-81.9,4.7c-1.6,1.6-3.1,3.3-4.6,5.2
	c-2-31.8-30.3-57-64.8-57c-0.1,0-0.2,0-0.2,0h0c-31.8,0.1-58.5,22-63.4,52.1c-0.4,2.2-0.6,4.5-0.6,6.9
	c-9.7-11.8-23.7-19.1-39.7-20.7c-16.4-1.6-32.9,3-46.5,12.9l0,0c-25.7,18.8-34.4,52.2-20.8,79.4c1,2,2.2,4,3.6,6
	c-14.8-3.8-30.4-1.5-44.3,6.6c-14.2,8.3-24.9,21.7-30,37.7c-9.7,30.3,2.8,62.5,29.9,76.5c2,1,4.1,1.9,6.4,2.7
	c-29.7,11.7-44.9,46.6-34.1,79.6c8.9,27.2,33.3,45,60,45c3,0,6-0.2,9.1-0.7c2.2-0.3,4.5-0.9,6.8-1.6c-17.2,26.9-9,64.2,19.1,84.5
	c11.8,8.5,25.4,12.7,38.8,12.7c15.8,0,31.3-5.9,43.1-17.5c1.6-1.6,3.1-3.3,4.6-5.2c2,31.8,30.3,57,64.8,57c0.1,0,0.2,0,0.2,0h0
	c31.8-0.1,58.5-22,63.4-52.1c0.4-2.2,0.6-4.5,0.6-6.9c9.7,11.8,23.7,19.1,39.7,20.7c2.2,0.2,4.3,0.3,6.5,0.3
	c14.2,0,28.2-4.6,40-13.2l0,0c25.7-18.8,34.4-52.2,20.8-79.4c-1-2-2.2-4-3.6-6c4.7,1.2,9.4,1.8,14.1,1.8c26.2,0,51.2-18.1,60.2-46.1
	C522.7,322.8,510.1,290.6,483.1,276.6z M444.5,168.3c21.1-3.2,41.5,10.2,48.6,31.8l0,0c8,24.4-3.4,50.1-25.4,57.3
	c-18.5,6.1-41.6,6-64,5.9c-9,0-17.6-0.1-25.7,0.3c-2.4-16-7.4-31.3-15-45.6c5.8-3.9,12.1-8.5,18.7-13.3
	C402.7,189.5,428.6,170.7,444.5,168.3z M359.9,277c0,24.6-9.6,47.7-27.1,65.1c-17.4,17.4-40.5,26.9-65.1,26.9c0,0-0.1,0-0.1,0
	c-24.6,0-47.7-9.6-65.1-27.1s-26.9-40.6-26.9-65.2c0.1-50.7,41.4-92,92.2-92C318.6,184.7,359.9,226.1,359.9,277z M346.9,85
	c15.2-15,39.6-16.2,58-2.9c20.8,15,26.6,42.5,13.1,61.3c-11.4,15.8-30.2,29.3-48.3,42.4c-7.3,5.3-14.3,10.3-20.7,15.4
	c-11.3-11.5-24.4-20.9-38.9-28.1c2.4-6.5,4.8-14,7.3-21.8C325.5,126.8,335.5,96.3,346.9,85z M219.1,75.1
	c3.5-21.1,22.5-36.4,45.2-36.5c0.1,0,0.1,0,0.2,0c25.5,0,46.3,18.8,46.4,41.9c0.1,19.5-7.2,41.5-14.2,62.7
	c-2.8,8.6-5.5,16.8-7.7,24.7c-15.9-2.6-32-2.6-47.9,0.2c-1.9-6.7-4.3-14.1-6.8-21.9C226.3,121.5,216.5,90.9,219.1,75.1z M125,86.1
	c9.7-7.1,22-10.5,33.7-9.4c11.8,1.2,22,6.8,28.6,15.8c11.5,15.7,18.5,37.8,25.3,59.1c2.8,8.6,5.4,16.8,8.2,24.5
	c-14.4,7.2-27.4,16.8-38.7,28.3c-5.5-4.3-11.8-8.9-18.4-13.7c-20.8-15.2-46.7-34.1-53.9-48.5C100.3,123.2,106.7,99.5,125,86.1z
	 M40.2,206.6L40.2,206.6c3.7-11.5,11.6-21.5,21.7-27.4c6.6-3.9,13.7-5.8,20.8-5.8c3.9,0,7.9,0.6,11.7,1.8
	c18.5,6,37.1,19.6,55.2,32.9c7.3,5.4,14.2,10.5,21,15c-7.4,14.4-12.4,29.7-14.7,45.7c-6.9-0.2-14.7-0.2-22.9-0.3
	c-25.8-0.1-57.8-0.1-72.1-7.5C42,251.1,33.3,228.2,40.2,206.6z M91,385.7c-21.1,3.2-41.5-10.2-48.6-31.8l0,0
	c-8-24.4,3.4-50.1,25.4-57.3c16.1-5.3,35.6-5.9,55.2-5.9c2.9,0,5.9,0,8.8,0c9,0,17.6,0.1,25.7-0.3c2.4,16,7.4,31.3,15,45.6
	c-5.8,3.9-12.1,8.5-18.8,13.3C132.8,364.5,106.9,383.3,91,385.7z M218,402.7c-8,24.5-18,55-29.4,66.3c-15.2,15-39.6,16.2-58,2.9
	c-20.8-15-26.6-42.5-13.1-61.3c11.4-15.8,30.2-29.3,48.3-42.4c7.3-5.3,14.3-10.3,20.7-15.4c11.3,11.5,24.4,20.9,38.9,28.1
	C223,387.5,220.5,394.9,218,402.7z M316.4,478.9c-3.5,21.1-22.5,36.4-45.2,36.5c-0.1,0-0.1,0-0.2,0c-25.5,0-46.3-18.8-46.4-41.9
	c-0.1-19.5,7.2-41.5,14.2-62.7c2.8-8.6,5.5-16.8,7.7-24.6c15.9,2.6,32,2.6,47.9-0.2c1.9,6.7,4.3,14.1,6.8,21.9
	C309.2,432.5,319,463,316.4,478.9z M410.5,467.9c-9.7,7.1-22,10.5-33.7,9.4c-11.8-1.2-22-6.8-28.6-15.8
	c-11.5-15.7-18.5-37.8-25.3-59.1c-2.8-8.6-5.4-16.8-8.2-24.5c14.4-7.2,27.4-16.8,38.7-28.3c5.5,4.3,11.8,8.9,18.4,13.7
	c20.8,15.2,46.7,34.1,53.9,48.5C435.2,430.8,428.8,454.4,410.5,467.9z M495.3,347.4L495.3,347.4c-6.5,20.1-24.1,33.2-42.5,33.2
	c-3.9,0-7.8-0.6-11.7-1.8c-18.5-6-37.1-19.6-55.2-32.9c-7.3-5.4-14.2-10.5-21-15c7.4-14.4,12.4-29.7,14.7-45.7
	c6.9,0.2,14.7,0.2,22.9,0.3c25.8,0.1,57.8,0.1,72.1,7.5C493.5,302.9,502.2,325.7,495.3,347.4z"/>
</svg>
