<svg width="450" height="451" viewBox="0 0 450 451" fill="none" xmlns="http://www.w3.org/2000/svg">
<ellipse cx="224.988" cy="225.892" rx="224.988" ry="224.914" fill="#EDF53A"/>
<path d="M421.406 225.892C421.406 334.334 333.468 422.245 224.988 422.245C116.508 422.245 28.5698 334.334 28.5698 225.892C28.5698 117.45 116.508 29.5391 224.988 29.5391C333.468 29.5391 421.406 117.45 421.406 225.892Z" stroke="black" stroke-width="5.19481"/>
<path d="M91.8137 217.851C99.7982 217.851 105.151 213.86 108.69 205.062C105.424 208.237 101.341 209.96 97.5298 209.96C97.1669 209.96 96.804 209.96 96.4411 209.96C91.4508 209.597 88.3659 206.15 86.8234 201.797C85.281 197.534 85.5532 194.631 85.5532 194.268C85.5532 187.828 88.2752 180.663 93.2654 180.663C97.6206 180.663 96.0781 188.101 100.978 190.277C102.429 191.003 103.337 190.912 103.518 190.912C105.514 190.912 107.964 189.733 108.146 187.284C108.146 186.921 108.146 186.649 108.146 186.377C108.146 183.203 106.331 180.663 103.427 179.03C100.433 177.398 96.7133 176.854 93.9006 176.854C82.6498 176.854 73.4858 184.473 73.4858 197.171C73.4858 207.239 80.4722 217.851 91.8137 217.851Z" fill="#1E1E1E"/>
<path d="M126.834 217.307C126.561 216.218 126.289 214.586 126.017 212.318C125.563 207.874 125.382 203.701 125.382 201.343C125.382 198.259 125.473 193.633 126.471 188.917C127.469 184.291 129.193 181.026 132.096 181.026C136.179 181.026 137.268 188.917 137.268 196.355C137.268 196.899 137.268 200.073 136.905 205.425C136.451 210.867 135.635 215.493 134.999 217.307H150.515C148.428 210.413 148.609 203.429 148.609 196.445C148.609 186.559 146.159 176.854 134.183 176.854C130.1 176.854 127.015 180.028 124.565 183.747C124.565 173.951 124.384 164.699 125.926 155.266C121.843 156.808 115.22 159.529 108.415 161.706C101.701 163.883 95.7124 165.425 91.8109 165.425C91.3572 165.425 90.9036 165.334 90.4499 165.334C86.367 165.062 85.5504 163.43 84.9152 159.711C84.2801 155.811 81.7396 153.724 77.8381 153.724C74.2996 153.724 71.0332 156.083 71.0332 159.801C71.0332 168.055 82.0118 169.597 88.2723 169.597C94.8958 169.597 106.51 166.786 112.316 164.609L112.589 164.427C113.042 169.779 113.314 175.13 113.314 180.572C113.314 183.293 113.224 186.105 113.133 188.826C112.77 197.987 112.135 207.511 111.137 217.307H126.834Z" fill="#1E1E1E"/>
<path d="M153.558 163.52C156.824 166.06 159.728 168.69 162.359 172.046C165.171 168.69 167.893 166.151 171.16 163.52C167.803 161.071 164.899 158.169 162.359 154.903C159.546 158.259 156.824 160.89 153.558 163.52ZM169.617 217.307C169.073 214.495 168.619 211.502 168.347 208.237C167.712 201.797 167.803 197.896 167.803 197.262C167.803 190.912 168.438 183.838 169.617 176.854H154.919C156.189 183.928 156.915 190.731 156.915 197.171C156.915 197.624 156.824 199.62 156.824 203.248C156.733 206.876 156.098 211.593 154.919 217.307H169.617Z" fill="#1E1E1E"/>
<path d="M191.963 217.851C199.947 217.851 205.301 213.86 208.839 205.062C205.573 208.237 201.49 209.96 197.679 209.96C197.316 209.96 196.953 209.96 196.59 209.96C191.6 209.597 188.515 206.15 186.973 201.797C185.43 197.534 185.702 194.631 185.702 194.268C185.702 187.828 188.424 180.663 193.415 180.663C197.679 180.663 201.581 185.38 203.032 189.915L206.389 179.665C201.944 177.579 199.04 176.854 194.05 176.854C182.799 176.854 173.635 184.473 173.635 197.171C173.635 207.239 180.621 217.851 191.963 217.851Z" fill="#1E1E1E"/>
<path d="M210.651 203.611C210.651 213.951 217.728 217.579 223.535 217.579C224.533 217.579 227.709 217.851 232.699 214.949L232.245 217.307H245.855C244.676 211.139 244.222 204.427 244.222 197.08C244.222 186.921 237.598 176.854 226.711 176.854C220.632 176.854 217.456 178.758 212.103 181.207L219.815 189.643C220.722 185.107 221.902 180.119 225.713 180.119C229.705 180.119 232.064 187.466 232.336 191.457C230.431 190.368 228.072 190.096 225.894 190.096C217.819 190.096 210.651 194.903 210.651 203.611ZM227.89 193.906C228.434 193.724 228.888 193.724 229.342 193.724C230.521 193.724 232.245 194.178 232.517 195.72C232.699 196.717 232.88 197.715 232.88 198.713C232.88 198.985 232.79 200.255 232.79 202.432C232.79 203.248 232.79 204.064 232.79 204.881L232.699 209.688C232.699 210.504 232.699 211.32 232.699 212.227C231.519 213.044 230.158 213.769 228.707 213.769C225.803 213.769 223.716 211.774 222.628 209.144C221.448 206.513 221.63 204.608 221.63 204.246C221.63 200.255 223.263 195.175 227.89 193.906Z" fill="#1E1E1E"/>
<path d="M266.721 208.237C268.989 208.146 271.257 207.783 273.344 207.057C274.977 206.423 276.429 205.697 277.79 204.79C278.607 205.788 279.151 206.785 279.242 207.692C279.242 207.964 279.332 208.146 279.332 208.418C279.332 210.958 276.429 212.5 273.435 212.5C272.981 212.5 272.528 212.5 271.983 212.409C270.078 212.137 267.9 211.683 265.45 211.23C260.642 210.232 258.283 210.413 257.92 210.413C253.746 210.413 249.935 211.502 248.211 215.946C247.485 217.851 247.213 219.665 247.213 221.207C247.213 223.928 248.302 227.647 253.02 230.549C257.647 233.452 264.271 234.54 269.443 234.54C277.246 234.54 278.153 230.549 278.153 229.189C278.153 228.282 277.79 226.558 276.066 225.198C274.251 223.837 271.529 223.656 268.535 225.742C265.995 227.556 264.089 228.463 262.819 228.554C261.549 228.645 260.732 228.735 260.369 228.735C258.645 228.735 257.194 228.373 255.833 227.738C253.202 226.377 252.385 224.2 252.385 222.93C252.385 222.477 252.476 221.933 252.748 221.479C253.292 220.481 254.381 219.937 256.014 219.937C256.105 219.937 257.647 219.846 262.184 220.572C266.721 221.298 270.622 221.933 272.89 221.933C274.07 221.933 275.159 221.842 276.248 221.661C278.153 221.388 279.786 220.572 281.329 219.393C284.323 216.944 284.867 213.951 284.867 212.046C284.867 210.958 284.686 209.779 284.323 208.599C283.688 206.513 282.417 204.518 280.33 202.432C281.329 201.343 282.145 200.164 282.78 198.894C283.778 196.989 284.232 194.813 284.232 192.364C284.232 187.647 282.417 183.747 279.242 180.935C278.334 180.209 277.336 179.575 276.338 178.94C276.61 178.123 277.064 177.398 277.609 176.763C280.33 173.86 284.686 173.679 289.222 172.953L284.413 166.241C280.33 166.423 276.52 171.593 274.705 175.765C274.433 176.4 274.161 177.126 273.979 177.761C273.889 177.67 273.798 177.67 273.707 177.67C271.711 176.944 269.624 176.581 267.265 176.581C267.084 176.581 266.902 176.581 266.721 176.581C257.647 176.581 249.209 182.749 249.209 192.364C249.209 198.078 252.203 203.157 257.375 205.606C259.916 206.785 263.908 208.237 266.721 208.237ZM263.001 181.661C263.454 181.479 263.817 181.479 264.271 181.479C265.813 181.479 267.9 182.658 269.896 185.561C270.894 187.012 271.711 188.645 272.437 190.459C273.798 194.178 273.707 196.355 273.707 197.08C273.707 199.62 273.072 202.25 270.441 203.248C269.987 203.429 269.533 203.52 269.08 203.52C267.447 203.52 265.36 202.341 263.454 199.438C262.456 197.987 261.73 196.355 261.095 194.45C259.825 190.731 259.825 188.554 259.825 187.828C259.825 185.289 260.46 182.477 263.001 181.661Z" fill="#1E1E1E"/>
<path d="M306.568 176.309C293.593 176.309 287.695 185.924 287.695 197.262C287.695 208.871 293.593 218.032 306.568 218.032C319.724 218.032 325.44 208.962 325.44 197.262C325.44 186.014 319.361 176.309 306.568 176.309ZM310.378 214.858C310.106 214.949 309.834 214.949 309.562 214.949C307.294 214.949 305.297 212.409 303.664 208.69C302.031 204.971 300.942 200.527 300.489 198.441C299.491 194.087 297.041 180.572 302.757 179.393C303.029 179.302 303.301 179.302 303.574 179.302C305.842 179.302 307.838 181.751 309.562 185.38C311.286 189.098 312.284 193.543 312.737 195.72C313.645 199.983 316.457 213.679 310.378 214.858Z" fill="#1E1E1E"/>
<path d="M94.0276 285.106C102.012 285.106 107.365 281.115 110.904 272.317C107.637 275.492 103.555 277.215 99.7437 277.215C99.3808 277.215 99.0179 277.215 98.655 277.215C93.6647 276.852 90.5798 273.405 89.0373 269.052C87.4949 264.789 87.7671 261.886 87.7671 261.523C87.7671 255.083 90.4891 247.918 95.4793 247.918C99.7437 247.918 103.645 252.634 105.097 257.17L108.454 246.92C104.008 244.834 101.105 244.108 96.1145 244.108C84.8637 244.108 75.6997 251.727 75.6997 264.426C75.6997 274.494 82.6861 285.106 94.0276 285.106Z" fill="black"/>
<path d="M143.928 247.646C143.202 246.648 142.113 245.832 140.57 245.106C137.576 243.655 135.126 243.655 134.128 243.655C131.497 243.655 127.959 244.29 125.327 247.192V244.108L113.441 248.553C114.167 254.539 114.53 260.344 114.53 265.877C114.53 266.331 114.802 272.136 113.351 284.562H125.6C125.418 283.564 125.237 281.931 125.055 279.664C124.602 275.219 124.602 271.863 124.602 271.228C124.602 261.614 125.963 247.555 131.951 247.555C135.217 247.555 133.403 251.818 136.578 255.174C138.302 257.079 142.294 256.898 143.655 255.265C144.563 254.086 145.107 252.907 145.107 251.546C145.107 251.365 145.288 249.551 143.928 247.646Z" fill="black"/>
<path d="M146.282 270.866C146.282 281.206 153.359 284.834 159.166 284.834C160.164 284.834 163.34 285.106 168.33 282.203L167.877 284.562H181.486C180.307 278.394 179.853 271.682 179.853 264.335C179.853 254.176 173.23 244.108 162.342 244.108C156.354 244.108 153.087 244.834 148.46 248.462C146.464 250.095 146.101 252.453 146.101 253.451C146.101 254.176 146.101 255.356 147.099 256.444C148.097 257.442 149.367 257.714 150.456 257.714C150.728 257.714 153.269 257.714 154.539 255.628C156.898 251.637 157.715 247.374 161.344 247.374C165.336 247.374 167.695 254.721 167.967 258.712C166.062 257.623 163.703 257.351 161.525 257.351C153.45 257.351 146.282 262.158 146.282 270.866ZM163.521 261.161C164.066 260.979 164.519 260.979 164.973 260.979C166.153 260.979 167.877 261.433 168.149 262.975C168.33 263.972 168.512 264.97 168.512 265.968C168.512 266.24 168.421 267.51 168.421 269.687C168.421 270.503 168.421 271.319 168.421 272.136L168.33 276.943C168.33 277.759 168.33 278.575 168.33 279.482C167.151 280.299 165.79 281.024 164.338 281.024C161.435 281.024 159.348 279.029 158.259 276.399C157.079 273.768 157.261 271.863 157.261 271.501C157.261 267.51 158.894 262.43 163.521 261.161Z" fill="black"/>
<path d="M199.533 244.381C199.805 240.299 200.44 237.124 201.438 235.038C202.346 232.952 203.162 231.954 203.797 231.864C204.432 231.864 204.705 231.864 204.795 231.864C207.154 231.864 209.876 235.582 211.419 243.564L215.139 231.954C208.334 228.78 204.705 229.143 203.434 229.143C201.166 229.143 198.898 229.596 196.72 230.503C192.365 232.317 188.826 237.124 188.01 244.381H183.927V247.555H187.738C187.647 259.619 187.012 272.136 185.288 284.562H202.073C200.349 273.677 199.351 259.8 199.351 247.555H204.251V244.381H199.533Z" fill="black"/>
<path d="M215.375 246.376H219.186C219.367 249.006 219.458 251.637 219.458 254.358C219.458 255.265 219.458 258.984 219.095 265.514C218.641 272.045 218.006 278.485 217.28 284.562H232.251C231.253 272.498 231.072 263.7 231.072 259.709C231.072 255.174 231.253 250.73 231.616 246.376H235.064L234.973 243.564H231.616C231.888 239.936 232.16 237.669 232.614 234.131H218.097C218.823 237.759 219.095 239.936 219.186 243.292H215.375V246.376ZM225.265 301.977C227.533 299.346 229.983 297.169 232.795 295.083C229.983 292.997 227.714 290.82 225.265 288.281C222.815 290.911 220.274 293.178 217.552 295.083C220.365 297.169 222.996 299.437 225.265 301.977Z" fill="black"/>
<path d="M267.613 285.106C275.598 285.106 280.951 281.115 284.489 272.317C281.223 275.492 277.14 277.215 273.329 277.215C272.966 277.215 272.604 277.215 272.241 277.215C267.25 276.852 264.165 273.405 262.623 269.052C261.081 264.789 261.353 261.886 261.353 261.523C261.353 255.083 264.075 247.918 269.065 247.918C273.329 247.918 277.231 252.634 278.683 257.17L282.04 246.92C277.594 244.834 274.69 244.108 269.7 244.108C258.449 244.108 249.285 251.727 249.285 264.426C249.285 274.494 256.272 285.106 267.613 285.106Z" fill="black"/>
<path d="M303.177 284.562C300.002 266.24 300.002 240.752 303.177 222.521L286.936 222.612C290.293 240.48 290.293 266.693 286.936 284.562H303.177Z" fill="black"/>
<path d="M357.404 289.278C352.232 290.004 351.416 295.809 347.333 295.809C340.619 295.809 341.98 282.566 341.617 277.396C341.254 271.682 341.254 266.784 341.254 264.154C341.254 262.249 341.254 259.981 341.345 257.532C341.435 252.453 341.798 246.739 342.252 244.199L329.912 248.553C330.275 250.458 330.547 254.358 330.547 258.077C330.547 258.984 330.547 261.705 330.094 266.693C329.368 274.04 327.281 280.571 322.654 280.571C314.579 280.571 317.663 248.825 318.389 244.199L305.596 248.462C306.231 253.995 306.14 258.712 306.14 265.514C306.14 275.401 308.953 284.562 320.567 284.562C325.194 284.562 329.368 281.296 330.82 276.943C330.82 292.181 336.717 299.074 354.138 299.074C356.95 299.074 358.947 298.53 360.217 297.442C362.667 295.174 362.213 293.723 362.213 293.451C362.213 291.183 360.489 289.188 358.221 289.188C357.949 289.188 357.676 289.188 357.404 289.278Z" fill="black"/>
<path d="M359.895 284.562L359.26 281.75C360.984 284.018 363.978 284.834 366.609 284.834C367.517 284.834 369.876 284.925 373.777 283.111C379.402 280.48 384.574 274.403 384.574 264.517C384.574 257.532 382.487 252.544 379.584 249.188C378.041 247.555 376.408 246.285 374.503 245.469C370.783 243.836 368.696 244.199 368.333 244.199C364.976 244.199 361.528 245.288 359.26 247.737C359.26 239.664 359.26 231.229 360.712 222.158C359.441 222.612 357.808 223.247 355.812 224.063L349.461 226.512C345.015 228.236 340.025 229.959 335.579 231.138C331.133 232.317 328.229 232.589 326.596 232.589C325.78 232.589 325.054 232.499 324.419 232.408C317.614 231.229 318.703 223.065 313.077 223.065C309.539 223.065 307.361 225.877 307.361 228.689C307.361 229.052 307.361 229.505 307.452 229.868C308.178 235.401 316.162 236.127 322.241 236.127C329.953 236.127 337.938 234.04 344.38 232.045C345.106 231.773 345.832 231.501 346.557 231.319C346.92 234.494 347.193 238.031 347.465 241.75C347.737 245.56 347.828 249.369 347.828 253.269C347.828 254.449 347.828 256.535 347.737 259.709C347.646 262.884 347.465 266.875 347.102 271.682C346.648 276.489 346.013 280.843 345.196 284.562H359.895ZM359.26 258.258C359.26 253.542 361.256 248.825 364.795 248.825C367.426 248.825 369.422 252.272 370.511 256.898C371.599 261.614 371.509 264.879 371.509 265.786C371.509 272.045 369.785 280.117 364.795 280.117C362.708 280.117 360.893 279.392 359.26 277.94V258.258Z" fill="black"/>
</svg>
