<svg width="53" height="53" viewBox="0 0 53 53" fill="none" xmlns="http://www.w3.org/2000/svg">
<path d="M44.8676 9.62931C41.431 8.05209 37.8046 6.92642 34.0788 6.28038C34.0451 6.27469 34.0104 6.2796 33.9795 6.29443C33.9487 6.30926 33.9232 6.33328 33.9066 6.36319C33.4395 7.19131 32.9228 8.2745 32.5617 9.1225C28.5457 8.51303 24.4606 8.51303 20.4446 9.1225C20.0418 8.17783 19.5862 7.2566 19.0798 6.36319C19.0628 6.33361 19.0373 6.30986 19.0065 6.29508C18.9758 6.2803 18.9413 6.27517 18.9076 6.28038C15.1812 6.9238 11.5545 8.04957 8.11876 9.62931C8.08937 9.64053 8.06478 9.66161 8.0492 9.68894C1.17908 19.9544 -0.705736 29.9681 0.218452 39.8559C0.221765 39.9022 0.251577 39.9486 0.288015 39.9784C4.28863 42.9418 8.76337 45.2044 13.5215 46.6697C13.555 46.6803 13.5911 46.6799 13.6245 46.6686C13.6579 46.6573 13.6867 46.6356 13.707 46.6068C14.7272 45.2155 15.6348 43.7481 16.4166 42.2044C16.4274 42.1834 16.4335 42.1603 16.4346 42.1366C16.4357 42.113 16.4317 42.0894 16.423 42.0674C16.4142 42.0454 16.4008 42.0256 16.3837 42.0092C16.3666 41.9929 16.3462 41.9804 16.3238 41.9726C14.8967 41.4241 13.5145 40.7651 12.1898 40.0016C12.1656 39.9876 12.1453 39.9679 12.1306 39.9441C12.1159 39.9203 12.1074 39.8932 12.1058 39.8653C12.1041 39.8374 12.1094 39.8095 12.1212 39.7842C12.133 39.7588 12.1509 39.7368 12.1733 39.7201C12.4515 39.5114 12.7298 39.2928 12.9948 39.0741C13.0182 39.0553 13.0463 39.0432 13.076 39.0391C13.1058 39.035 13.1361 39.0391 13.1637 39.0509C21.8391 43.0127 31.2301 43.0127 39.7995 39.0509C39.8281 39.0382 39.8596 39.0336 39.8906 39.0377C39.9216 39.0418 39.9508 39.0544 39.9751 39.0741C40.2401 39.2928 40.5183 39.5114 40.7966 39.7201C40.8191 39.7365 40.8372 39.7584 40.8493 39.7835C40.8613 39.8087 40.867 39.8365 40.8657 39.8644C40.8643 39.8923 40.8561 39.9194 40.8418 39.9434C40.8274 39.9673 40.8073 39.9873 40.7833 40.0016C39.4616 40.772 38.0777 41.4301 36.646 41.9692C36.6239 41.9778 36.6037 41.9909 36.587 42.0077C36.5702 42.0245 36.5572 42.0447 36.5488 42.0669C36.5403 42.0891 36.5367 42.1128 36.538 42.1365C36.5394 42.1602 36.5457 42.1833 36.5566 42.2044C37.3516 43.7448 38.2625 45.2155 39.2629 46.6068C39.2831 46.6356 39.312 46.6573 39.3453 46.6686C39.3787 46.6799 39.4148 46.6803 39.4484 46.6697C44.2144 45.209 48.6965 42.9461 52.7017 39.9784C52.7216 39.9644 52.7381 39.9461 52.7502 39.9249C52.7622 39.9037 52.7694 39.8802 52.7713 39.8559C53.8776 28.4244 50.9196 18.4936 44.9339 9.69225C44.9279 9.67772 44.9188 9.6646 44.9074 9.65376C44.896 9.64292 44.8825 9.63459 44.8676 9.62931ZM17.7118 33.8337C15.0982 33.8337 12.9484 31.4355 12.9484 28.494C12.9484 25.5492 15.0585 23.1509 17.7118 23.1509C20.385 23.1509 22.5149 25.5691 22.4751 28.494C22.4751 31.4355 20.3651 33.8337 17.7118 33.8337ZM35.321 33.8337C32.7108 33.8337 30.5576 31.4355 30.5576 28.494C30.5576 25.5492 32.6677 23.1509 35.321 23.1509C37.9942 23.1509 40.1275 25.5691 40.0844 28.494C40.0844 31.4355 37.9942 33.8337 35.321 33.8337Z" fill="black"/>
</svg>
