<svg width="53" height="53" viewBox="0 0 53 53" fill="none" xmlns="http://www.w3.org/2000/svg">
<path d="M26.5025 0C19.3055 0 18.4022 0.0314696 15.5755 0.160106C12.7544 0.289295 10.8287 0.735935 9.1437 1.39126C7.40075 2.06813 5.92226 2.97355 4.44929 4.44708C2.97521 5.92005 2.06978 7.39854 1.39071 9.14094C0.733726 10.8265 0.286534 12.7527 0.159553 15.5728C0.0331251 18.3995 0 19.3032 0 26.5003C0 33.6973 0.0320217 34.5978 0.160106 37.4245C0.289847 40.2456 0.736487 42.1713 1.39126 43.8563C2.06868 45.5992 2.9741 47.0777 4.44763 48.5507C5.92005 50.0248 7.39855 50.9324 9.14039 51.6093C10.8265 52.2646 12.7527 52.7113 15.5733 52.8404C18.4 52.9691 19.3027 53.0005 26.4992 53.0005C33.6968 53.0005 34.5972 52.9691 37.4239 52.8404C40.2451 52.7113 42.173 52.2646 43.8591 51.6093C45.6015 50.9324 47.0777 50.0248 48.5502 48.5507C50.0242 47.0777 50.9297 45.5992 51.6087 43.8568C52.2602 42.1713 52.7074 40.2451 52.8399 37.425C52.9669 34.5983 53 33.6973 53 26.5003C53 19.3032 52.9669 18.4 52.8399 15.5733C52.7074 12.7522 52.2602 10.8265 51.6087 9.14149C50.9297 7.39854 50.0242 5.92005 48.5502 4.44708C47.0761 2.973 45.602 2.06757 43.8574 1.39126C42.168 0.735935 40.2412 0.289295 37.42 0.160106C34.5933 0.0314696 33.6934 0 26.4942 0H26.5025ZM24.1252 4.77557C24.8308 4.77447 25.618 4.77557 26.5025 4.77557C33.5781 4.77557 34.4167 4.80097 37.2108 4.92795C39.7946 5.04609 41.1969 5.47783 42.131 5.84055C43.3677 6.32087 44.2494 6.89504 45.1763 7.82255C46.1039 8.75006 46.678 9.6334 47.1595 10.8701C47.5222 11.8031 47.9545 13.2054 48.0721 15.7892C48.199 18.5828 48.2266 19.4219 48.2266 26.4942C48.2266 33.5665 48.199 34.4056 48.0721 37.1992C47.9539 39.783 47.5222 41.1853 47.1595 42.1183C46.6791 43.355 46.1039 44.2356 45.1763 45.1625C44.2488 46.09 43.3683 46.6642 42.131 47.1445C41.198 47.5089 39.7946 47.9395 37.2108 48.0577C34.4172 48.1847 33.5781 48.2123 26.5025 48.2123C19.4264 48.2123 18.5877 48.1847 15.7942 48.0577C13.2104 47.9384 11.8081 47.5067 10.8734 47.144C9.63671 46.6637 8.75337 46.0895 7.82586 45.162C6.89835 44.2345 6.32418 43.3533 5.84276 42.1161C5.48004 41.1831 5.04775 39.7808 4.93016 37.197C4.80318 34.4034 4.77778 33.5643 4.77778 26.4876C4.77778 19.4109 4.80318 18.5761 4.93016 15.7826C5.0483 13.1988 5.48004 11.7965 5.84276 10.8624C6.32308 9.62567 6.89835 8.74233 7.82586 7.81482C8.75337 6.88731 9.63671 6.31314 10.8734 5.83172C11.8075 5.46734 13.2104 5.03671 15.7942 4.91801C18.2388 4.80759 19.1862 4.77447 24.1252 4.76895V4.77557ZM40.6481 9.17572C38.8925 9.17572 37.4681 10.5985 37.4681 12.3546C37.4681 14.1103 38.8925 15.5347 40.6481 15.5347C42.4038 15.5347 43.8281 14.1103 43.8281 12.3546C43.8281 10.599 42.4038 9.17462 40.6481 9.17462V9.17572ZM26.5025 12.8913C18.9869 12.8913 12.8935 18.9847 12.8935 26.5003C12.8935 34.0159 18.9869 40.1065 26.5025 40.1065C34.0181 40.1065 40.1093 34.0159 40.1093 26.5003C40.1093 18.9847 34.0175 12.8913 26.5019 12.8913H26.5025ZM26.5025 17.6668C31.3807 17.6668 35.3359 21.6215 35.3359 26.5003C35.3359 31.3785 31.3807 35.3337 26.5025 35.3337C21.6237 35.3337 17.6691 31.3785 17.6691 26.5003C17.6691 21.6215 21.6237 17.6668 26.5025 17.6668Z" fill="black"/>
</svg>
