<svg width="53" height="53" viewBox="0 0 53 53" fill="none" xmlns="http://www.w3.org/2000/svg">
<path d="M29.8125 3.37623e-05L36.3732 0C36.8469 2.36848 38.162 5.3565 40.4623 8.32082C42.7163 11.2254 45.7029 13.25 49.6875 13.25V19.875C43.8794 19.875 39.515 17.1801 36.4375 13.8177V36.4375C36.4375 45.5848 29.0222 53 19.875 53C10.7278 53 3.3125 45.5847 3.3125 36.4375C3.3125 27.2903 10.7278 19.875 19.875 19.875V26.5C14.3867 26.5 9.9375 30.9492 9.9375 36.4375C9.9375 41.9259 14.3867 46.375 19.875 46.375C25.3633 46.375 29.8125 41.9259 29.8125 36.4375V3.37623e-05Z" fill="black"/>
</svg>
